<svg width="195" height="56" viewBox="0 0 195 56" fill="none" xmlns="http://www.w3.org/2000/svg">
<path d="M49.6 34.4001C49.1898 34.2328 48.7338 34.2157 48.3122 34.3518C47.8907 34.4879 47.5308 34.7685 47.296 35.1441L43.2 33.4881V33.4241C43.2034 33.2707 43.1712 33.1187 43.106 32.9799C43.0408 32.8411 42.9442 32.7193 42.824 32.6241C43.9016 29.4143 43.8138 25.9275 42.576 22.7761L47.264 20.8001C47.5004 21.1833 47.8626 21.4726 48.2886 21.6186C48.7147 21.7645 49.1782 21.7579 49.6 21.6001C49.9269 21.4561 50.2066 21.2227 50.4067 20.9267C50.6068 20.6308 50.7192 20.2843 50.731 19.9272C50.7428 19.5701 50.6534 19.217 50.4732 18.9085C50.293 18.6 50.0293 18.3487 49.7125 18.1835C49.3957 18.0184 49.0387 17.9461 48.6826 17.975C48.3265 18.0039 47.9858 18.1328 47.6998 18.3469C47.4138 18.561 47.1941 18.8516 47.066 19.1851C46.938 19.5186 46.9067 19.8816 46.976 20.2321L42.304 22.1681C41.4766 20.2605 40.2425 18.5568 38.688 17.1761C38.7388 17.0775 38.761 16.9666 38.752 16.8561C38.7573 16.6736 38.7109 16.4933 38.6182 16.336C38.5255 16.1788 38.3902 16.051 38.2279 15.9673C38.0656 15.8837 37.883 15.8476 37.7011 15.8633C37.5192 15.879 37.3455 15.9458 37.2 16.0561C36.4646 15.5637 35.6946 15.1252 34.896 14.7441L36.8 10.0881C37.2301 10.1894 37.6824 10.1319 38.0734 9.92608C38.4645 9.72025 38.768 9.38001 38.928 8.96806C39.1075 8.50812 39.1014 7.99642 38.9109 7.54092C38.7203 7.08543 38.3603 6.72175 37.9068 6.52663C37.4532 6.33151 36.9416 6.32021 36.4799 6.4951C36.0181 6.67 35.6424 7.01742 35.432 7.46406C35.2658 7.87558 35.2492 8.33235 35.3852 8.75482C35.5211 9.1773 35.801 9.53869 36.176 9.77606L34.24 14.4001C31.226 13.2123 27.8988 13.0798 24.8 14.0241C24.6663 13.8158 24.4831 13.6439 24.2667 13.5238C24.0502 13.4037 23.8074 13.3392 23.56 13.3361H23.312L21.808 9.72006C22.1721 9.47482 22.4433 9.11444 22.5782 8.69667C22.7131 8.2789 22.7039 7.82794 22.552 7.41606C22.459 7.17805 22.3192 6.96118 22.1407 6.77837C21.9622 6.59555 21.7487 6.45053 21.513 6.35194C21.2773 6.25335 21.0242 6.2032 20.7687 6.20449C20.5132 6.20578 20.2606 6.25848 20.0259 6.35945C19.7912 6.46042 19.5792 6.6076 19.4026 6.79221C19.2259 6.97682 19.0883 7.19509 18.9978 7.43402C18.9073 7.67295 18.8658 7.92765 18.8758 8.18295C18.8858 8.43825 18.947 8.68893 19.056 8.92006C19.2228 9.32645 19.5277 9.66087 19.9171 9.86432C20.3064 10.0678 20.7551 10.1272 21.184 10.0321L22.688 13.6481C22.4932 13.7794 22.3343 13.9571 22.2253 14.1652C22.1164 14.3733 22.0609 14.6052 22.064 14.8401C22.0528 14.9492 22.0781 15.0589 22.136 15.1521C19.2768 16.6663 17.0193 19.1101 15.736 22.0801L11.112 20.1521C11.2156 19.7228 11.16 19.2706 10.9555 18.8793C10.751 18.488 10.4115 18.1841 9.99995 18.0241C9.53742 17.8246 9.0146 17.8171 8.5465 18.0031C8.07841 18.1892 7.7034 18.5535 7.50395 19.0161C7.30451 19.4786 7.29698 20.0014 7.48302 20.4695C7.66905 20.9376 8.03342 21.3126 8.49595 21.5121C8.9006 21.6781 9.35047 21.6978 9.76809 21.5678C10.1857 21.4379 10.5449 21.1664 10.784 20.8001L15.408 22.7361C14.8044 24.2819 14.4637 25.9178 14.4 27.5761C14.2471 27.6284 14.1157 27.7296 14.026 27.8641C13.9364 27.9986 13.8935 28.1588 13.904 28.3201C13.9032 28.4794 13.9499 28.6353 14.0383 28.7678C14.1267 28.9004 14.2526 29.0035 14.4 29.0641C14.5322 30.4911 14.8496 31.8949 15.344 33.2401L10.728 35.2001C10.4928 34.8238 10.1361 34.5393 9.71702 34.3938C9.29791 34.2483 8.84163 34.2505 8.42395 34.4001C8.19493 34.4988 7.9876 34.6417 7.8138 34.8206C7.64 34.9995 7.50313 35.2108 7.41102 35.4426C7.3189 35.6744 7.27334 35.922 7.27693 36.1714C7.28052 36.4208 7.3332 36.667 7.43195 36.8961C7.53071 37.1251 7.67361 37.3324 7.85249 37.5062C8.03137 37.68 8.24273 37.8169 8.4745 37.909C8.70628 38.0011 8.95393 38.0467 9.20331 38.0431C9.4527 38.0395 9.69893 37.9868 9.92795 37.8881C10.3357 37.7254 10.6719 37.4224 10.8759 37.0336C11.0798 36.6448 11.138 36.196 11.04 35.7681L15.664 33.8321C16.1712 35.0027 16.8448 36.0939 17.664 37.0721C17.5886 37.2268 17.5477 37.396 17.544 37.5681C17.5418 37.6993 17.566 37.8296 17.6149 37.9514C17.6639 38.0732 17.7368 38.1839 17.8292 38.2771C17.9217 38.3703 18.0318 38.444 18.1532 38.494C18.2746 38.544 18.4047 38.5691 18.536 38.5681C18.6892 38.5526 18.8383 38.5092 18.976 38.4401C20.2033 39.6147 21.6348 40.5555 23.2 41.2161L21.224 45.8401C20.7949 45.7391 20.3438 45.7969 19.9541 46.0028C19.5643 46.2087 19.2624 46.5487 19.104 46.9601C19.0052 47.1891 18.9525 47.4353 18.9489 47.6847C18.9453 47.9341 18.9909 48.1817 19.083 48.4135C19.1751 48.6453 19.312 48.8566 19.4858 49.0355C19.6596 49.2144 19.8669 49.3573 20.096 49.4561C20.325 49.5548 20.5712 49.6075 20.8206 49.6111C21.07 49.6147 21.3176 49.5691 21.5494 49.477C21.7812 49.3849 21.9925 49.248 22.1714 49.0742C22.3503 48.9004 22.4932 48.6931 22.592 48.4641C22.7609 48.0541 22.7788 47.5975 22.6426 47.1756C22.5063 46.7537 22.2247 46.3938 21.848 46.1601L23.776 41.5361C25.4451 42.2016 27.2271 42.5384 29.024 42.5281C30.8163 42.5181 32.592 42.182 34.264 41.5361L36.2 46.2161C35.8336 46.4593 35.5606 46.8196 35.4255 47.2381C35.2904 47.6566 35.3011 48.1085 35.456 48.5201C35.5547 48.7491 35.6976 48.9564 35.8765 49.1302C36.0554 49.304 36.2667 49.4409 36.4985 49.533C36.7303 49.6251 36.9779 49.6707 37.2273 49.6671C37.4767 49.6635 37.7229 49.6108 37.952 49.5121C38.181 49.4133 38.3883 49.2704 38.5621 49.0915C38.7359 48.9126 38.8728 48.7013 38.9649 48.4695C39.057 48.2377 39.1026 47.9901 39.099 47.7407C39.0954 47.4913 39.0427 47.2451 38.944 47.0161C38.7795 46.6039 38.4728 46.2643 38.0795 46.0588C37.6861 45.8533 37.2322 45.7956 36.8 45.8961L34.872 41.2161C37.992 39.8592 40.5391 37.4536 42.072 34.4161H42.192C42.3389 34.4226 42.4852 34.3915 42.6168 34.3257C42.7484 34.2599 42.861 34.1616 42.944 34.0401L47 35.7281C46.8963 36.1573 46.9519 36.6095 47.1564 37.0008C47.3609 37.3922 47.7004 37.696 48.112 37.8561C48.579 38.0298 49.094 38.0237 49.5568 37.8388C50.0195 37.654 50.3971 37.3037 50.616 36.8561C50.8046 36.3954 50.8036 35.8789 50.6133 35.419C50.4231 34.959 50.0589 34.5928 49.6 34.4001ZM23.792 16.3281L26.536 22.8081L23.736 24.3681C23.5567 24.188 23.3484 24.0392 23.12 23.9281L23.792 16.3281ZM28.416 28.6241L27.92 29.8641L27.2 29.1201L28.416 28.6241ZM26.608 28.6241L24.208 26.3201L28.208 28.0001L26.608 28.6241ZM29.008 28.8721L30.44 32.3041L28.416 30.4001L29.008 28.8721ZM30.064 32.8721C29.9444 33.1023 29.8788 33.3567 29.872 33.6161V33.8641L26.312 35.4641L28.12 31.0321L30.064 32.8721ZM31.376 32.0721H31.2L29.768 28.5841L32.968 29.8881L31.856 32.1441C31.7116 32.0965 31.5576 32.0855 31.408 32.1121L31.376 32.0721ZM29.904 28.0001L34.832 25.9441L33.08 29.3121L29.904 28.0001ZM35.024 27.1281L34.656 30.0001L33.712 29.6001L35.024 27.1281ZM35.824 26.2481C35.896 26.2481 35.896 26.2481 35.952 26.1761L41.12 32.5761L35.384 30.1761L35.824 26.2481ZM34.584 25.3201L29.656 27.3761L32.056 21.5121H32.368C32.5399 21.5073 32.7089 21.4665 32.864 21.3921L34.8 24.5921C34.6583 24.8163 34.5732 25.0716 34.552 25.3361L34.584 25.3201ZM31.448 21.2641L29.048 27.1281L27.36 23.1281L31.2 21.0881C31.288 21.1441 31.344 21.2001 31.464 21.2641H31.448ZM28.4 27.3761L24.112 25.6001V25.3521C24.1229 25.2251 24.098 25.0975 24.04 24.9841L26.784 23.4801L28.4 27.3761ZM22.656 26.8161H22.728L23.6 29.8801L21.2 30.8721L22.568 26.8161H22.656ZM23.352 26.6321C23.416 26.6321 23.416 26.5681 23.472 26.5681L25.968 28.9681L24.232 29.6001L23.352 26.6321ZM26.472 29.4321L27.656 30.5521L25.776 35.0481L24.416 30.3041L26.472 29.4321ZM30.136 34.4881C30.2697 34.6798 30.4481 34.836 30.6558 34.9434C30.8635 35.0507 31.0942 35.1058 31.328 35.1041H31.576L33.176 38.9681L26.496 36.0961L30.136 34.4881ZM32.208 34.8001C32.5188 34.5704 32.7395 34.2393 32.832 33.8641H34.192L33.632 38.2401L32.208 34.8001ZM32.832 33.2001C32.7471 32.8912 32.5748 32.6134 32.336 32.4001L33.448 30.1521L34.568 30.5921L34.248 33.1441L32.832 33.2001ZM35.232 30.8961L40.536 33.0801L34.936 33.1521L35.232 30.8961ZM36.424 25.7761C36.5268 25.6326 36.5699 25.4547 36.544 25.2801V25.2161L39.288 24.0961L41.344 32.0161L36.424 25.7761ZM36.296 24.5921L36.104 24.4001L37.704 18.0961L39.072 23.3921L36.296 24.5921ZM37.096 17.4721L35.408 24.2081H35.288L33.352 21.0081C33.5064 20.8666 33.6302 20.6949 33.7155 20.5036C33.8008 20.3123 33.8459 20.1055 33.848 19.8961C33.848 19.7041 33.784 19.5761 33.784 19.4001L37.096 17.4721ZM30.792 20.4161L27.048 22.4721L24.376 16.0721L24.568 15.8801L30.744 19.4961C30.6871 19.6548 30.6652 19.824 30.68 19.9921C30.7715 20.1314 30.8291 20.2904 30.848 20.4561L30.792 20.4161ZM23.048 16.2321L22.4 23.8881C22.1982 23.9104 22.0042 23.9782 21.8324 24.0862C21.6606 24.1943 21.5155 24.3399 21.408 24.5121L18.536 23.3201L23.048 16.2321ZM21.112 25.0321V25.4721L15.68 27.6241L18.176 23.7601L21.112 25.0321ZM15.568 28.4081L21.312 26.1601C21.4205 26.3405 21.5715 26.4916 21.752 26.6001L20.248 31.2241L19.624 31.4721L15.448 28.5361C15.624 28.4961 15.624 28.4401 15.624 28.4401L15.568 28.4081ZM20.864 31.7041L23.736 30.5201L25.16 35.2001L20.8 32.1681L20.864 31.7041ZM24.864 35.8321L19.44 37.0161C19.3874 36.9079 19.3001 36.8206 19.192 36.7681L20.504 32.7681L24.864 35.8321ZM25.04 36.5201L24.472 38.0241L20.472 37.5281L25.04 36.5201ZM25.664 36.8241C25.7552 36.8266 25.8461 36.8109 25.9313 36.7779C26.0164 36.745 26.0942 36.6954 26.16 36.6321L31.456 38.9361L25.152 38.0721L25.664 36.8241ZM34.216 38.7601L34.84 33.8321L41.072 33.7121L34.216 38.7601ZM42.136 32.2721L39.952 23.8161L41.952 23.0161C43.1327 25.9848 43.2206 29.2765 42.2 32.3041L42.136 32.2721ZM41.704 22.4001L39.776 23.2001L38.336 17.7761C39.8092 19.0287 40.9636 20.6136 41.704 22.4001ZM36.8 16.5201C36.8 16.5921 36.736 16.7121 36.736 16.7681V16.9601L33.424 18.8961L33.176 18.6481L34.536 15.2801C35.3299 15.6173 36.0883 16.0327 36.8 16.5201ZM29.008 14.1201C30.7157 14.1264 32.4078 14.4463 34 15.0641L32.664 18.4001H32.352C31.9058 18.4068 31.4792 18.5843 31.16 18.8961L24.984 15.2801C25.0413 15.1409 25.0632 14.9898 25.048 14.8401V14.6401C26.3538 14.3075 27.6928 14.1223 29.04 14.0881L29.008 14.1201ZM22.448 15.8081C22.448 15.8721 22.52 15.8721 22.52 15.9281L17.896 23.0481L16.368 22.4001C17.5932 19.5615 19.7489 17.2252 22.48 15.7761L22.448 15.8081ZM17.6 23.5681L15.256 27.2001C15.3196 25.7638 15.6365 24.3501 16.192 23.0241L17.6 23.5681ZM15.256 29.1201L19.064 31.7921L16.12 32.9841C15.6139 31.7547 15.3216 30.4479 15.256 29.1201ZM19.68 32.2401L20 32.4321L18.632 36.6081C18.5201 36.5915 18.406 36.6172 18.312 36.6801C17.562 35.7354 16.9332 34.7007 16.44 33.6001L19.68 32.2401ZM19.56 38.0481L24.304 38.6641L23.504 40.6641C22.0273 40.065 20.6861 39.1754 19.56 38.0481ZM24.04 40.9121L24.912 38.7361L32.912 39.7281C32.9635 39.9025 33.0684 40.0565 33.2119 40.1684C33.3553 40.2803 33.5302 40.3445 33.712 40.3521L33.904 40.8481C30.7469 42.1391 27.2135 42.1621 24.04 40.9121ZM34.656 40.6641L34.456 40.1681C34.616 40.0024 34.7075 39.7823 34.712 39.5521V39.3601L41.32 34.4881C39.8605 37.2407 37.5114 39.4177 34.656 40.6641Z" fill="#005487"/>
<path d="M23.736 6.39995C23.8453 6.55056 23.9291 6.71813 23.984 6.89595C24.059 7.0512 24.1025 7.21978 24.112 7.39195L27.92 4.59195C28.2452 4.35099 28.6392 4.22091 29.044 4.22091C29.4487 4.22091 29.8428 4.35099 30.168 4.59195L33.976 7.39195C34.048 7.19995 34.048 7.07195 34.104 6.89595C34.1752 6.72517 34.2581 6.55945 34.352 6.39995C34.6334 5.92264 35.0438 5.53443 35.536 5.27995L31.672 2.39995C30.9298 1.7881 29.9978 1.45349 29.036 1.45349C28.0741 1.45349 27.1422 1.7881 26.4 2.39995L22.512 5.28795C23.0223 5.52735 23.4488 5.91483 23.736 6.39995Z" fill="#005487"/>
<path d="M34.4 49.6C34.2874 49.4514 34.2034 49.2832 34.152 49.104C34.0769 48.9488 34.0334 48.7802 34.024 48.608L30.216 51.408C29.8908 51.649 29.4967 51.7791 29.092 51.7791C28.6872 51.7791 28.2932 51.649 27.968 51.408L24.16 48.608C24.088 48.8 24.088 48.928 24.032 49.104C23.9607 49.2748 23.8778 49.4405 23.784 49.6C23.5026 50.0773 23.0922 50.4656 22.6 50.72L26.472 53.6C27.216 54.2181 28.1527 54.5564 29.12 54.5564C30.0872 54.5564 31.024 54.2181 31.768 53.6L35.632 50.728C35.1043 50.5041 34.6694 50.106 34.4 49.6Z" fill="#005487"/>
<path d="M10.008 16.448L10.576 16.64C10.7409 16.6893 10.8917 16.7771 11.016 16.896L11.704 12.216C11.7605 11.8223 11.9431 11.4575 12.2243 11.1763C12.5055 10.895 12.8703 10.7125 13.264 10.656L17.944 9.96799C17.872 9.83999 17.752 9.64799 17.696 9.51999C17.64 9.39199 17.568 9.15199 17.504 8.95999C17.3706 8.43165 17.3928 7.87597 17.568 7.35999L12.8 7.99999C11.8403 8.09542 10.9433 8.52074 10.2621 9.20346C9.58083 9.88618 9.15742 10.784 9.06404 11.744L8.36804 16.488C8.90507 16.3538 9.46512 16.3402 10.008 16.448Z" fill="#005487"/>
<path d="M48.064 39.48L47.496 39.288C47.3331 39.2382 47.183 39.1536 47.056 39.04L46.4 43.72C46.3398 44.1182 46.1508 44.4856 45.8618 44.7659C45.5727 45.0462 45.1998 45.224 44.8 45.272L40.12 45.968C40.2134 46.1084 40.2962 46.2555 40.368 46.408C40.44 46.6 40.496 46.776 40.568 46.976C40.6966 47.5054 40.6717 48.0604 40.496 48.576L45.24 47.888C46.2001 47.7914 47.0972 47.3659 47.7796 46.6836C48.4619 46.0013 48.8874 45.1041 48.984 44.144L49.672 39.4C49.1551 39.5822 48.5964 39.61 48.064 39.48Z" fill="#005487"/>
<path d="M7.95196 33.048C8.10921 32.9799 8.27698 32.9393 8.44797 32.928L5.64796 29.12C5.407 28.7948 5.27692 28.4008 5.27692 27.996C5.27692 27.5913 5.407 27.1972 5.64796 26.872L8.44797 23.064C8.25597 22.992 8.13596 22.992 7.95196 22.936C7.76796 22.88 7.58396 22.744 7.45596 22.688C6.98026 22.4046 6.59254 21.9947 6.33597 21.504L3.47196 25.368C2.85097 26.1107 2.51074 27.048 2.51074 28.016C2.51074 28.9841 2.85097 29.9214 3.47196 30.664L6.33597 34.528C6.61177 34.0514 6.99534 33.6459 7.45596 33.344C7.59569 33.2077 7.76564 33.1063 7.95196 33.048Z" fill="#005487"/>
<path d="M54.616 25.3201L51.752 21.4561C51.4765 21.9351 51.093 22.3433 50.632 22.6481C50.4787 22.7528 50.3118 22.8363 50.136 22.8961C49.9788 22.9642 49.811 23.0048 49.64 23.0161L52.44 26.8241C52.6816 27.1505 52.8121 27.5459 52.8121 27.9521C52.8121 28.3582 52.6816 28.7536 52.44 29.0801L49.64 32.8881C49.832 32.9521 49.952 32.9521 50.136 33.0081C50.32 33.0641 50.504 33.2001 50.632 33.2561C51.1077 33.5395 51.4954 33.9494 51.752 34.4401L54.616 30.5841C55.2375 29.8479 55.5785 28.9155 55.5785 27.9521C55.5785 26.9886 55.2375 26.0562 54.616 25.3201Z" fill="#005487"/>
<path d="M11.744 43.728L11.056 39.056C10.936 39.12 10.744 39.248 10.616 39.304L10.048 39.496C9.51867 39.6247 8.96363 39.5997 8.448 39.424L9.136 44.168C9.23085 45.1274 9.65473 46.0245 10.3357 46.7069C11.0167 47.3893 11.9128 47.8151 12.872 47.912L17.624 48.6C17.4815 48.0787 17.4569 47.5321 17.552 47C17.624 46.8 17.68 46.624 17.744 46.432C17.7918 46.2683 17.8767 46.1177 17.992 45.992L13.32 45.296C12.9148 45.2619 12.5346 45.0859 12.2464 44.7991C11.9581 44.5123 11.7802 44.133 11.744 43.728Z" fill="#005487"/>
<path d="M46.4 12.216L47.088 16.896C47.216 16.824 47.408 16.696 47.528 16.64L48.096 16.448C48.6253 16.3189 49.1805 16.3439 49.696 16.52L49.008 11.776C48.922 10.8116 48.5028 9.90717 47.8225 9.21813C47.1423 8.52909 46.2433 8.0984 45.28 8.00001L40.528 7.31201C40.6744 7.83277 40.699 8.38021 40.6 8.91201C40.528 9.11201 40.48 9.28801 40.408 9.48001C40.3602 9.64376 40.2754 9.79431 40.16 9.92001L44.84 10.616C45.2418 10.6693 45.6139 10.856 45.8968 11.1461C46.1797 11.4363 46.3569 11.8131 46.4 12.216Z" fill="#005487"/>
<path d="M71.76 18.9359H70.528L69.92 17.2079H67.256L66.68 18.9359H65.448L68 12.1599H69.272L71.76 18.9359ZM69.6 16.2959L68.68 13.5999C68.6428 13.4608 68.616 13.319 68.6 13.1759C68.5827 13.3202 68.5506 13.4623 68.504 13.5999L67.576 16.3039L69.6 16.2959Z" fill="#005487"/>
<path d="M77.512 12.6559L73.8 17.9839H77.472V18.9359H72.224V18.3999L75.952 13.1039H72.52V12.1759H77.512V12.6559Z" fill="#005487"/>
<path d="M78.12 15.072H83.264C83.2308 14.5081 82.9781 13.9797 82.56 13.6C82.1172 13.2175 81.5444 13.0199 80.96 13.048C80.2763 13.0315 79.6047 13.2302 79.04 13.616V12.576C79.6637 12.2319 80.368 12.0607 81.08 12.08C81.534 12.0529 81.9887 12.1216 82.4146 12.2814C82.8404 12.4413 83.2279 12.6888 83.552 13.008C83.8618 13.3503 84.1005 13.7508 84.2543 14.1861C84.4081 14.6215 84.4739 15.083 84.448 15.544C84.4792 16.4719 84.1593 17.3776 83.552 18.08C83.2512 18.4148 82.88 18.6788 82.465 18.8531C82.0501 19.0273 81.6016 19.1076 81.152 19.088C80.7192 19.1132 80.2866 19.0349 79.8901 18.8596C79.4936 18.6843 79.1446 18.4171 78.872 18.08C78.3015 17.1855 78.0376 16.1297 78.12 15.072ZM83.264 16H79.336C79.3206 16.5527 79.5053 17.0924 79.856 17.52C80.029 17.7084 80.2411 17.8568 80.4773 17.9549C80.7136 18.053 80.9684 18.0984 81.224 18.088C81.4873 18.0938 81.7492 18.0466 81.9938 17.949C82.2385 17.8514 82.461 17.7055 82.648 17.52C83.0198 17.0978 83.237 16.5618 83.264 16Z" fill="#005487"/>
<path d="M90.936 18.9359H89.6L88.528 17.1279C88.4413 16.9779 88.3451 16.8336 88.24 16.6959C88.1537 16.5879 88.0543 16.4912 87.944 16.4079C87.8454 16.3425 87.7409 16.2863 87.632 16.2399C87.505 16.2018 87.3724 16.1856 87.24 16.1919H86.784V18.9359H85.672V12.1599H87.888C88.1876 12.1591 88.486 12.1968 88.776 12.2719C89.0311 12.3389 89.2704 12.4558 89.48 12.6159C89.6766 12.7668 89.8354 12.9612 89.944 13.1839C90.0603 13.4343 90.1178 13.7079 90.112 13.9839C90.1119 14.2073 90.074 14.4291 90 14.6399C89.9371 14.8402 89.8336 15.0254 89.696 15.1839C89.5642 15.3417 89.4075 15.4769 89.232 15.5839C89.0366 15.6954 88.8266 15.7789 88.608 15.8319C88.7252 15.8968 88.8329 15.9776 88.928 16.0719C89.0238 16.1517 89.1122 16.2401 89.192 16.3359C89.272 16.4159 89.352 16.5279 89.44 16.6319C89.528 16.7359 89.6 16.8879 89.696 17.0239L90.936 18.9359ZM86.824 13.0799V15.2799H87.768C87.932 15.2801 88.0947 15.2503 88.248 15.1919C88.392 15.1449 88.5234 15.0656 88.632 14.9599C88.7456 14.858 88.831 14.7285 88.88 14.5839C88.9434 14.4318 88.976 14.2687 88.976 14.1039C88.9845 13.9627 88.9616 13.8213 88.9091 13.6899C88.8565 13.5585 88.7756 13.4404 88.672 13.3439C88.4212 13.1499 88.1086 13.0533 87.792 13.0719H86.824V13.0799Z" fill="#005487"/>
<path d="M91.728 18.936V12.16H93.88C94.4455 12.1215 95.0079 12.2705 95.48 12.584C95.6597 12.7099 95.8061 12.8777 95.9064 13.0728C96.0068 13.268 96.0581 13.4846 96.056 13.704C96.0644 14.0675 95.9487 14.423 95.728 14.712C95.4943 15.0005 95.1794 15.2123 94.824 15.32C95.2458 15.3481 95.6433 15.527 95.944 15.824C96.226 16.1336 96.3754 16.5415 96.36 16.96C96.3651 17.2324 96.3053 17.5021 96.1857 17.7469C96.0661 17.9917 95.89 18.2046 95.672 18.368C95.1741 18.7386 94.5643 18.9278 93.944 18.904H91.768L91.728 18.936ZM92.84 13.072V15H93.6C93.9284 15.014 94.2521 14.9183 94.52 14.728C94.6354 14.6308 94.726 14.5076 94.7845 14.3685C94.8429 14.2294 94.8674 14.0784 94.856 13.928C94.856 13.352 94.464 13.064 93.696 13.064L92.84 13.072ZM92.84 15.896V18.04H93.792C94.1401 18.064 94.4848 17.9586 94.76 17.744C94.8759 17.6468 94.9673 17.5238 95.0271 17.3849C95.0868 17.246 95.1132 17.095 95.104 16.944C95.104 16.24 94.624 15.896 93.64 15.896H92.84Z" fill="#005487"/>
<path d="M103.12 18.9359H101.896L101.288 17.2079H98.624L98.0401 18.9359H96.8L99.336 12.1599H100.608L103.12 18.9359ZM101 16.2959L100.056 13.5999C100.019 13.4608 99.9921 13.319 99.976 13.1759C99.9588 13.3202 99.9266 13.4623 99.88 13.5999L98.96 16.3039L101 16.2959Z" fill="#005487"/>
<path d="M108.048 12.1759L105.824 16.4799V18.9359H104.712V16.4879L102.544 12.1599H103.824L105.152 15.0559C105.152 15.0959 105.216 15.2239 105.288 15.4399C105.327 15.3077 105.378 15.1792 105.44 15.0559L106.832 12.1599H108.032L108.048 12.1759Z" fill="#005487"/>
<path d="M113.4 18.656C112.806 18.9397 112.153 19.0769 111.496 19.056C111.054 19.0814 110.611 19.0125 110.197 18.8539C109.783 18.6953 109.408 18.4506 109.096 18.136C108.49 17.4684 108.174 16.5883 108.216 15.688C108.195 15.2075 108.272 14.7277 108.443 14.278C108.613 13.8282 108.874 13.4179 109.208 13.072C109.538 12.7405 109.933 12.48 110.368 12.3067C110.803 12.1334 111.268 12.0508 111.736 12.064C112.282 12.0522 112.825 12.1445 113.336 12.336V13.456C112.88 13.1883 112.36 13.05 111.832 13.056C111.504 13.0455 111.176 13.1026 110.871 13.2237C110.565 13.3448 110.288 13.5273 110.056 13.76C109.823 14.012 109.642 14.3082 109.526 14.6311C109.409 14.954 109.358 15.2971 109.376 15.64C109.357 15.9639 109.404 16.2883 109.514 16.5936C109.624 16.8988 109.795 17.1786 110.016 17.416C110.232 17.6368 110.491 17.81 110.778 17.9244C111.064 18.0387 111.372 18.0917 111.68 18.08C112.265 18.0955 112.841 17.9368 113.336 17.624V18.656H113.4Z" fill="#005487"/>
<path d="M120.248 18.9359H119.016L118.4 17.2079H115.736L115.2 18.9359H113.968L116.512 12.1599H117.784L120.248 18.9359ZM118.104 16.2959L117.168 13.5999C117.131 13.4608 117.104 13.319 117.088 13.1759C117.071 13.3202 117.039 13.4623 116.992 13.5999L116.064 16.3039L118.104 16.2959Z" fill="#005487"/>
<path d="M126.912 18.9359H125.68L122.48 13.9519C122.398 13.8309 122.329 13.7023 122.272 13.5679C122.314 13.8726 122.33 14.1804 122.32 14.4879V18.9359H121.224V12.1599H122.536L125.656 17.0159C125.751 17.147 125.834 17.2862 125.904 17.4319C125.869 17.1293 125.855 16.8245 125.864 16.5199V12.1599H126.936V18.9359H126.912Z" fill="#005487"/>
<path d="M136.488 18.9359H135.2L134.12 17.1279C134.033 16.9779 133.937 16.8336 133.832 16.6959C133.749 16.588 133.652 16.4913 133.544 16.4079C133.443 16.3425 133.336 16.2862 133.224 16.2399C133.1 16.2013 132.97 16.185 132.84 16.1919H132.384V18.9359H131.264V12.1599H133.488C133.788 12.1591 134.086 12.1968 134.376 12.2719C134.629 12.339 134.865 12.456 135.072 12.6159C135.272 12.7659 135.433 12.9604 135.544 13.1839C135.66 13.4343 135.718 13.7079 135.712 13.9839C135.712 14.2073 135.674 14.4291 135.6 14.6399C135.531 14.8374 135.428 15.0214 135.296 15.1839C135.163 15.3437 135.003 15.4791 134.824 15.5839C134.632 15.6965 134.424 15.7801 134.208 15.8319C134.323 15.8968 134.428 15.9776 134.52 16.0719C134.62 16.1475 134.708 16.2363 134.784 16.3359C134.875 16.4275 134.958 16.5265 135.032 16.6319C135.12 16.7439 135.2 16.8879 135.296 17.0239L136.488 18.9359ZM132.376 13.0799V15.2799H133.312C133.479 15.2807 133.644 15.2509 133.8 15.1919C133.943 15.143 134.074 15.0639 134.184 14.9599C134.298 14.858 134.383 14.7285 134.432 14.5839C134.495 14.4318 134.528 14.2687 134.528 14.1039C134.537 13.9627 134.514 13.8213 134.461 13.6899C134.409 13.5585 134.328 13.4404 134.224 13.3439C133.973 13.1499 133.661 13.0533 133.344 13.0719H132.376V13.0799Z" fill="#005487"/>
<path d="M141.072 18.9359H137.272V12.1599H140.92V13.1119H138.4V15.0319H140.728V15.9999H138.4V17.9999H141.08L141.072 18.9359Z" fill="#005487"/>
<path d="M141.968 18.672V17.512C142.075 17.6161 142.199 17.7001 142.336 17.76C142.482 17.8364 142.635 17.9006 142.792 17.952C142.949 18.0048 143.109 18.0475 143.272 18.08C143.421 18.0908 143.571 18.0908 143.72 18.08C144.084 18.1038 144.448 18.0233 144.768 17.848C144.88 17.7707 144.97 17.6663 145.03 17.5445C145.09 17.4227 145.118 17.2876 145.112 17.152C145.115 17.008 145.076 16.8663 145 16.744C144.919 16.6146 144.809 16.5052 144.68 16.424C144.529 16.3188 144.368 16.2278 144.2 16.152L143.592 15.872C143.36 15.752 143.152 15.624 142.944 15.496C142.757 15.382 142.585 15.2449 142.432 15.088C142.277 14.9319 142.155 14.7454 142.076 14.5403C141.996 14.3352 141.959 14.1159 141.968 13.896C141.962 13.6141 142.037 13.3364 142.184 13.096C142.326 12.8604 142.52 12.6607 142.752 12.512C143 12.3578 143.27 12.2419 143.552 12.168C143.852 12.1018 144.157 12.067 144.464 12.064C144.989 12.035 145.515 12.1139 146.008 12.296V13.4C145.572 13.1065 145.053 12.9607 144.528 12.984C144.362 12.9857 144.196 12.999 144.032 13.024C143.879 13.0552 143.731 13.1063 143.592 13.176C143.469 13.2492 143.361 13.3441 143.272 13.456C143.202 13.5776 143.165 13.7155 143.165 13.856C143.165 13.9964 143.202 14.1343 143.272 14.256C143.345 14.374 143.44 14.4772 143.552 14.56C143.69 14.6614 143.837 14.7497 143.992 14.824C144.168 14.904 144.36 15 144.6 15.096C144.84 15.192 145.056 15.344 145.256 15.48C145.455 15.6131 145.64 15.7658 145.808 15.936C145.971 16.0915 146.099 16.2796 146.184 16.488C146.28 16.7014 146.327 16.9339 146.32 17.168C146.334 17.4698 146.261 17.7694 146.112 18.032C145.975 18.2688 145.783 18.4691 145.552 18.616C145.305 18.7658 145.034 18.874 144.752 18.936C144.434 19.0016 144.109 19.0337 143.784 19.032C143.672 19.032 143.536 19.032 143.368 19.032L142.864 18.968C142.693 18.9385 142.524 18.8957 142.36 18.84C142.222 18.8017 142.091 18.7452 141.968 18.672Z" fill="#005487"/>
<path d="M148.656 16.48V18.936H147.536V12.16H149.6C150.247 12.1181 150.888 12.3081 151.408 12.696C151.626 12.8854 151.798 13.1223 151.911 13.3886C152.023 13.6549 152.073 13.9435 152.056 14.232C152.067 14.5316 152.013 14.83 151.897 15.1064C151.781 15.3828 151.606 15.6304 151.384 15.832C150.886 16.268 150.237 16.492 149.576 16.456H148.664L148.656 16.48ZM148.656 13.096V15.568H149.392C149.787 15.5922 150.178 15.476 150.496 15.24C150.622 15.1184 150.72 14.9711 150.783 14.8082C150.847 14.6453 150.874 14.4706 150.864 14.296C150.864 13.496 150.392 13.096 149.472 13.096H148.656Z" fill="#005487"/>
<path d="M158.4 16.1999C158.4 18.1039 157.504 19.0559 155.696 19.0559C153.888 19.0559 153.112 18.1439 153.112 16.3119V12.1759H154.232V16.0799C154.232 17.3999 154.744 18.0639 155.776 18.0639C156.808 18.0639 157.264 17.4319 157.264 16.1439V12.1439H158.4V16.1439V16.1999Z" fill="#005487"/>
<path d="M160 18.936V12.16H162.152C162.718 12.1202 163.28 12.2694 163.752 12.584C163.934 12.708 164.083 12.8752 164.185 13.0706C164.287 13.266 164.339 13.4836 164.336 13.704C164.342 14.0684 164.224 14.4241 164 14.712C163.771 15.0018 163.458 15.2141 163.104 15.32C163.525 15.3501 163.922 15.5287 164.224 15.824C164.506 16.1336 164.655 16.5415 164.64 16.96C164.643 17.233 164.582 17.5029 164.461 17.7476C164.34 17.9924 164.163 18.205 163.944 18.368C163.449 18.7386 162.842 18.9278 162.224 18.904H160V18.936ZM161.12 13.072V15H161.848C162.179 15.0152 162.506 14.9194 162.776 14.728C162.89 14.63 162.979 14.5064 163.036 14.3674C163.093 14.2283 163.116 14.0778 163.104 13.928C163.104 13.352 162.72 13.064 161.944 13.064L161.12 13.072ZM161.12 15.896V18.04H162.072C162.42 18.064 162.765 17.9586 163.04 17.744C163.156 17.6468 163.247 17.5238 163.307 17.3849C163.367 17.2459 163.393 17.0949 163.384 16.944C163.384 16.24 162.896 15.896 161.92 15.896H161.12Z" fill="#005487"/>
<path d="M169.6 18.9359H165.848V12.1599H166.968V17.9839H169.6V18.9359Z" fill="#005487"/>
<path d="M171.104 11.536C170.954 11.5345 170.81 11.4808 170.696 11.384C170.642 11.3358 170.599 11.2765 170.57 11.2103C170.541 11.144 170.527 11.0723 170.528 11C170.527 10.9277 170.542 10.8562 170.571 10.79C170.6 10.7238 170.643 10.6645 170.696 10.616C170.75 10.5639 170.814 10.5235 170.884 10.4974C170.954 10.4712 171.029 10.4598 171.104 10.464C171.257 10.4613 171.405 10.5155 171.52 10.616C171.575 10.6635 171.618 10.7226 171.647 10.789C171.676 10.8554 171.69 10.9275 171.688 11C171.689 11.0723 171.675 11.144 171.646 11.2103C171.617 11.2765 171.574 11.3358 171.52 11.384C171.465 11.4366 171.4 11.4774 171.328 11.5035C171.256 11.5297 171.18 11.5407 171.104 11.536ZM171.704 18.936H170.544V12.16H171.704V18.936Z" fill="#005487"/>
<path d="M178.488 18.9359H177.024L174.664 15.8399C174.607 15.7655 174.553 15.6881 174.504 15.6079V18.9519H173.384V12.1759H174.504V15.3759C174.551 15.2944 174.605 15.2168 174.664 15.1439L176.944 12.1919H178.296L175.632 15.3919L178.488 18.9359Z" fill="#005487"/>
<path d="M184.84 18.9359H183.608L183 17.2079H180.336L179.76 18.9359H178.528L181.072 12.1599H182.336L184.84 18.9359ZM182.696 16.2959L181.76 13.5999C181.723 13.4608 181.696 13.319 181.68 13.1759C181.668 13.3196 181.641 13.4617 181.6 13.5999L180.672 16.3039L182.696 16.2959Z" fill="#005487"/>
<path d="M185.456 18.6719V17.5119C185.567 17.6145 185.694 17.6982 185.832 17.7599C185.978 17.8364 186.131 17.9006 186.288 17.9519C186.445 18.0067 186.605 18.0495 186.768 18.0799C186.914 18.0904 187.062 18.0904 187.208 18.0799C187.572 18.1061 187.937 18.0255 188.256 17.8479C188.369 17.7716 188.461 17.6676 188.523 17.5457C188.584 17.4239 188.614 17.2884 188.608 17.1519C188.608 17.0084 188.569 16.8674 188.496 16.7439C188.41 16.6182 188.302 16.5096 188.176 16.4239C188.025 16.3188 187.864 16.2278 187.696 16.1519L187.088 15.8719C186.848 15.7519 186.648 15.6239 186.44 15.4959C186.252 15.384 186.079 15.2467 185.928 15.0879C185.784 14.9391 185.667 14.7657 185.584 14.5759C185.492 14.3613 185.449 14.1292 185.456 13.8959C185.453 13.6134 185.53 13.3358 185.68 13.0959C185.82 12.8586 186.015 12.6583 186.248 12.5119C186.496 12.3578 186.766 12.2419 187.048 12.1679C187.345 12.1022 187.648 12.0674 187.952 12.0639C188.48 12.035 189.008 12.1139 189.504 12.2959V13.3999C189.067 13.1085 188.549 12.9629 188.024 12.9839C187.858 12.9853 187.692 12.9987 187.528 13.0239C187.375 13.0529 187.226 13.1041 187.088 13.1759C186.962 13.2448 186.853 13.3404 186.768 13.4559C186.698 13.5776 186.661 13.7155 186.661 13.8559C186.661 13.9964 186.698 14.1343 186.768 14.2559C186.838 14.3739 186.931 14.4771 187.04 14.5599C187.18 14.6579 187.328 14.7461 187.48 14.8239L188.088 15.0959C188.328 15.2239 188.544 15.3439 188.752 15.4799C188.951 15.6131 189.136 15.7658 189.304 15.9359C189.465 16.0932 189.593 16.2808 189.68 16.4879C189.776 16.7014 189.823 16.9339 189.816 17.1679C189.825 17.4694 189.753 17.7677 189.608 18.0319C189.47 18.2709 189.275 18.4716 189.04 18.6159C188.793 18.7666 188.523 18.8748 188.24 18.9359C187.922 19.0015 187.597 19.0337 187.272 19.0319C187.16 19.0319 187.024 19.0319 186.856 19.0319L186.344 18.9679C186.176 18.9375 186.01 18.8948 185.848 18.8399C185.711 18.8008 185.579 18.7444 185.456 18.6719Z" fill="#005487"/>
<path d="M192.176 18.9359H191.016V12.1599H192.176V18.9359Z" fill="#005487"/>
<path d="M71.424 31.3519H70.112L69.04 29.5439C68.9553 29.3952 68.859 29.2534 68.752 29.1199C68.67 29.0059 68.57 28.9059 68.456 28.8239C68.3589 28.758 68.2541 28.7043 68.144 28.6639C68.0201 28.6235 67.8902 28.6046 67.76 28.6079H67.304V31.3519H66.184V24.5759H68.408C68.7049 24.5757 69.0006 24.6133 69.288 24.6879C69.5418 24.7582 69.7805 24.8748 69.992 25.0319C70.1887 25.1847 70.3498 25.3785 70.464 25.5999C70.5737 25.8521 70.6283 26.1249 70.624 26.3999C70.6238 26.626 70.586 26.8504 70.512 27.0639C70.4468 27.2591 70.3465 27.4408 70.216 27.5999C69.9313 27.93 69.5463 28.1576 69.12 28.2479C69.2381 28.3081 69.346 28.3864 69.44 28.4799C69.5339 28.5618 69.6221 28.65 69.704 28.7439C69.792 28.8407 69.8748 28.9422 69.952 29.0479C70.032 29.1599 70.112 29.2959 70.216 29.4319L71.424 31.3519ZM67.312 25.5039V27.6959H68.256C68.4195 27.6987 68.5822 27.6716 68.736 27.6159C68.8805 27.5661 69.0118 27.484 69.12 27.3759C69.2335 27.2772 69.3191 27.1503 69.368 27.0079C69.4312 26.853 69.4638 26.6873 69.464 26.5199C69.4724 26.3799 69.4494 26.2397 69.3968 26.1096C69.3443 25.9795 69.2633 25.8628 69.16 25.7679C68.9124 25.5669 68.5981 25.4669 68.28 25.4879H67.312V25.5039Z" fill="#005487"/>
<path d="M71.7681 27.488H76.9201C76.8917 26.9137 76.6389 26.3736 76.2161 25.984C75.7713 25.6051 75.1999 25.4079 74.6161 25.432C73.9345 25.4128 73.2646 25.6118 72.7041 26V24.968C73.3251 24.6163 74.0307 24.442 74.7441 24.464C75.1981 24.437 75.6528 24.5056 76.0786 24.6655C76.5045 24.8253 76.892 25.0728 77.2161 25.392C77.5251 25.7349 77.7633 26.1354 77.9171 26.5706C78.0708 27.0058 78.1371 27.4671 78.1121 27.928C78.1414 28.8581 77.8218 29.7655 77.2161 30.472C76.9149 30.8063 76.5436 31.0701 76.1287 31.2443C75.7139 31.4186 75.2656 31.499 74.8161 31.48C74.3847 31.5026 73.9542 31.4232 73.5594 31.248C73.1646 31.0728 72.8167 30.807 72.5441 30.472C71.9563 29.5933 71.6829 28.5417 71.7681 27.488ZM76.9201 28.424H72.9841C72.968 28.9782 73.1559 29.5191 73.5121 29.944C73.6834 30.1346 73.8951 30.2845 74.1318 30.3828C74.3685 30.4811 74.6241 30.5252 74.8801 30.512C75.1425 30.5206 75.404 30.4745 75.6477 30.3767C75.8915 30.2789 76.1122 30.1316 76.2961 29.944C76.6825 29.5304 76.9044 28.9898 76.9201 28.424Z" fill="#005487"/>
<path d="M82.144 31.464C81.6827 31.4688 81.2253 31.3789 80.8 31.2C80.4129 31.0402 80.0639 30.8003 79.776 30.496C79.4931 30.1807 79.2732 29.8141 79.128 29.416C78.9688 28.9694 78.8903 28.4981 78.896 28.024C78.8913 27.5239 78.9697 27.0264 79.128 26.552C79.2683 26.1314 79.4944 25.7446 79.792 25.416C80.0828 25.1003 80.4411 24.8542 80.84 24.696C81.282 24.5282 81.7513 24.4441 82.224 24.448C82.6679 24.4469 83.1079 24.5311 83.52 24.696C83.9062 24.8599 84.2534 25.1035 84.5388 25.411C84.8242 25.7184 85.0413 26.0827 85.176 26.48C85.3334 26.9215 85.4119 27.3873 85.408 27.856C85.4189 28.4588 85.3073 29.0576 85.08 29.616C84.8716 30.0915 84.547 30.5069 84.136 30.824L86.096 32.248H84.384L83.2 31.328C83.032 31.368 82.864 31.408 82.696 31.432C82.5134 31.4593 82.3286 31.47 82.144 31.464ZM82.2 25.464C81.9239 25.4647 81.651 25.5247 81.4 25.64C81.1434 25.7592 80.9166 25.9341 80.736 26.152C80.5432 26.388 80.3991 26.6599 80.312 26.952C80.1094 27.6224 80.1094 28.3377 80.312 29.008C80.3946 29.3003 80.5362 29.5725 80.728 29.808C80.9021 30.026 81.1237 30.2011 81.376 30.32C81.6254 30.4402 81.8993 30.5005 82.176 30.496C82.4747 30.504 82.7717 30.4495 83.048 30.336C83.3011 30.2256 83.5255 30.0586 83.704 29.848C83.9025 29.617 84.0449 29.3432 84.12 29.048C84.2221 28.7081 84.2733 28.3549 84.272 28C84.2792 27.6353 84.2334 27.2715 84.136 26.92C84.0502 26.6321 83.9149 26.3614 83.736 26.12C83.563 25.9051 83.3407 25.735 83.088 25.624C82.8042 25.5172 82.5033 25.463 82.2 25.464Z" fill="#005487"/>
<path d="M86.2161 27.488H91.3681C91.3356 26.9148 91.0834 26.3761 90.6641 25.984C90.2193 25.6051 89.6479 25.4079 89.0641 25.432C88.3825 25.4128 87.7126 25.6118 87.1521 26V24.968C87.7731 24.6163 88.4787 24.442 89.1921 24.464C89.646 24.4379 90.1004 24.507 90.5261 24.6668C90.9518 24.8267 91.3394 25.0736 91.6641 25.392C91.9731 25.7348 92.2113 26.1354 92.3651 26.5706C92.5188 27.0058 92.5851 27.4671 92.5601 27.928C92.5894 28.8581 92.2698 29.7655 91.6641 30.472C91.3619 30.805 90.9904 31.0678 90.5758 31.242C90.1612 31.4161 89.7134 31.4974 89.2641 31.48C88.8327 31.5026 88.4022 31.4231 88.0074 31.248C87.6126 31.0728 87.2647 30.8069 86.9921 30.472C86.4043 29.5933 86.1309 28.5417 86.2161 27.488ZM91.3681 28.424H87.4321C87.416 28.9782 87.6039 29.5191 87.9601 29.944C88.1305 30.1335 88.3409 30.2828 88.5761 30.381C88.8113 30.4793 89.0654 30.524 89.3201 30.512C89.5837 30.5202 89.8462 30.474 90.0912 30.3763C90.3362 30.2785 90.5584 30.1314 90.7441 29.944C91.1305 29.5304 91.3524 28.9898 91.3681 28.424Z" fill="#005487"/>
<path d="M101.08 31.3519H100V26.9759C100 26.6239 100 26.1759 100.072 25.6719C100.031 25.8871 99.9721 26.0985 99.896 26.3039L97.88 31.3679H97.08L95.056 26.3439C95 26.1919 94.944 25.9679 94.872 25.6719C94.872 25.9439 94.872 26.3839 94.872 26.9919V31.3679H93.832V24.5919H95.432L97.208 29.1039C97.3176 29.363 97.4058 29.6305 97.472 29.9039C97.5429 29.6289 97.6393 29.361 97.76 29.1039L99.568 24.6239H101.096V31.3679L101.08 31.3519Z" fill="#005487"/>
<path d="M102.4 31.0879V29.9279C102.511 30.033 102.638 30.1194 102.776 30.1839C102.922 30.2556 103.071 30.3197 103.224 30.3759C103.383 30.431 103.546 30.4711 103.712 30.4959C103.857 30.5237 104.004 30.5371 104.152 30.5359C104.516 30.5621 104.881 30.4815 105.2 30.3039C105.323 30.2328 105.425 30.13 105.496 30.0063C105.566 29.8825 105.602 29.7423 105.6 29.5999C105.604 29.4533 105.565 29.3087 105.488 29.1839C105.405 29.0584 105.299 28.9498 105.176 28.8639C105.023 28.7571 104.859 28.666 104.688 28.5919L104.088 28.3119C103.848 28.1919 103.64 28.0639 103.432 27.9439C103.247 27.8267 103.078 27.6869 102.928 27.5279C102.782 27.3804 102.665 27.2067 102.584 27.0159C102.482 26.8252 102.419 26.6156 102.4 26.3999C102.398 26.1175 102.476 25.8403 102.624 25.5999C102.763 25.3672 102.955 25.17 103.184 25.0239C103.431 24.868 103.701 24.7519 103.984 24.6799C104.283 24.6073 104.589 24.5697 104.896 24.5679C105.421 24.538 105.947 24.617 106.44 24.7999V25.9039C106.005 25.6151 105.49 25.4697 104.968 25.4879C104.801 25.4877 104.635 25.5037 104.472 25.5359C104.317 25.5572 104.167 25.6089 104.032 25.6879C103.905 25.7515 103.795 25.8448 103.712 25.9599C103.626 26.0814 103.581 26.2272 103.584 26.3759C103.58 26.5103 103.613 26.6431 103.68 26.7599C103.753 26.878 103.848 26.9811 103.96 27.0639C104.096 27.1682 104.244 27.2567 104.4 27.3279L105.008 27.5999C105.236 27.7193 105.457 27.8502 105.672 27.9919C105.874 28.12 106.06 28.2733 106.224 28.4479C106.384 28.6042 106.509 28.7923 106.592 28.9999C106.691 29.2099 106.74 29.4399 106.736 29.6719C106.744 29.9758 106.672 30.2765 106.528 30.5439C106.383 30.7754 106.189 30.972 105.96 31.1199C105.713 31.271 105.443 31.3792 105.16 31.4399C104.842 31.5059 104.517 31.5381 104.192 31.5359C104.088 31.5359 103.944 31.5359 103.784 31.5359C103.624 31.5359 103.448 31.5359 103.272 31.4719C103.104 31.4415 102.938 31.3988 102.776 31.3439C102.64 31.276 102.513 31.1899 102.4 31.0879Z" fill="#005487"/>
<path d="M113.6 31.3519H112.368L111.736 29.5999H109.072L108.488 31.3199H107.264L109.8 24.5439H111.072L113.6 31.3519ZM111.464 28.7199L110.52 26.0159C110.471 25.8801 110.431 25.7411 110.4 25.5999C110.384 25.747 110.351 25.8918 110.304 26.0319L109.384 28.7359L111.464 28.7199Z" fill="#005487"/>
<path d="M118.248 31.3519H114.488V24.5759H115.608V30.3999H118.232V31.3519H118.248Z" fill="#005487"/>
<path d="M122.44 23.9999C122.288 23.9971 122.142 23.9436 122.024 23.8479C121.972 23.7971 121.931 23.7361 121.903 23.6686C121.875 23.6012 121.862 23.5287 121.864 23.4559C121.862 23.3842 121.875 23.3128 121.903 23.2466C121.93 23.1804 121.972 23.1208 122.024 23.0719C122.079 23.0192 122.144 22.9785 122.216 22.9523C122.288 22.9262 122.364 22.9151 122.44 22.9199C122.593 22.9172 122.741 22.9714 122.856 23.0719C122.909 23.1202 122.951 23.1796 122.979 23.246C123.007 23.3124 123.019 23.3841 123.016 23.4559C123.018 23.5287 123.005 23.6012 122.977 23.6686C122.949 23.7361 122.908 23.7971 122.856 23.8479C122.74 23.9465 122.592 24.0004 122.44 23.9999ZM123.032 31.3919H121.872V24.5759H123.032V31.3919Z" fill="#005487"/>
<path d="M130.44 31.3519H129.216L126.016 26.3679C125.936 26.2461 125.866 26.1176 125.808 25.9839C125.842 26.292 125.855 26.602 125.848 26.9119V31.3519H124.76V24.5759H126.072L129.192 29.4319C129.282 29.5662 129.365 29.705 129.44 29.8479C129.408 29.545 129.395 29.2405 129.4 28.9359V24.5759H130.4V31.3519H130.44Z" fill="#005487"/>
<path d="M137.232 31.3519H135.768L133.368 28.2639C133.31 28.1872 133.256 28.1071 133.208 28.0239V31.3679H132.088V24.5919H133.208V27.7919C133.257 27.7116 133.31 27.6341 133.368 27.5599L135.648 24.6079H137L134.4 27.8319L137.232 31.3519Z" fill="#005487"/>
<path d="M138.568 23.9999C138.418 23.9985 138.274 23.9447 138.16 23.8479C138.107 23.7976 138.064 23.7368 138.035 23.6694C138.006 23.6019 137.992 23.5293 137.992 23.4559C137.991 23.3837 138.006 23.3121 138.035 23.246C138.064 23.1798 138.106 23.1205 138.16 23.0719C138.213 23.019 138.277 22.9781 138.348 22.9519C138.418 22.9257 138.493 22.9148 138.568 22.9199C138.721 22.9173 138.869 22.9714 138.984 23.0719C139.039 23.1194 139.082 23.1786 139.111 23.245C139.14 23.3114 139.154 23.3835 139.152 23.4559C139.152 23.5293 139.138 23.6019 139.109 23.6694C139.08 23.7368 139.037 23.7976 138.984 23.8479C138.871 23.9513 138.721 24.0059 138.568 23.9999ZM139.176 31.3919H138.016V24.5759H139.2L139.176 31.3919Z" fill="#005487"/>
<path d="M140.528 31.0879V29.9279C140.639 30.033 140.766 30.1194 140.904 30.1839C141.052 30.257 141.204 30.3211 141.36 30.3759C141.516 30.4318 141.676 30.472 141.84 30.4959C141.985 30.5237 142.132 30.5371 142.28 30.5359C142.644 30.5621 143.009 30.4815 143.328 30.3039C143.44 30.2283 143.531 30.1256 143.593 30.0053C143.654 29.885 143.684 29.751 143.68 29.6159C143.681 29.4696 143.643 29.3258 143.568 29.1999C143.48 29.0761 143.372 28.9679 143.248 28.8799C143.097 28.7748 142.936 28.6838 142.768 28.6079L142.16 28.3279C141.92 28.2079 141.72 28.0799 141.512 27.9599C141.325 27.8428 141.153 27.7031 141 27.5439C140.854 27.3965 140.737 27.2227 140.656 27.0319C140.565 26.8198 140.522 26.5906 140.528 26.3599C140.526 26.0775 140.604 25.8003 140.752 25.5599C140.892 25.3249 141.087 25.1273 141.32 24.9839C141.566 24.8266 141.836 24.7104 142.12 24.6399C142.934 24.4555 143.783 24.497 144.576 24.7599V25.864C144.137 25.576 143.62 25.4307 143.096 25.4479C142.929 25.4481 142.763 25.4642 142.6 25.4959C142.445 25.5172 142.295 25.5689 142.16 25.6479C142.033 25.7115 141.923 25.8048 141.84 25.9199C141.756 26.0421 141.714 26.188 141.72 26.3359C141.713 26.4707 141.746 26.6045 141.816 26.7199C141.886 26.8379 141.979 26.9411 142.088 27.0239C142.227 27.1247 142.374 27.2131 142.528 27.2879L143.136 27.5599C143.365 27.6776 143.586 27.8085 143.8 27.9519C144.002 28.0801 144.188 28.2333 144.352 28.4079C144.515 28.5634 144.643 28.7515 144.728 28.9599C144.824 29.1705 144.871 29.4005 144.864 29.6319C144.872 29.9358 144.8 30.2365 144.656 30.5039C144.516 30.739 144.321 30.9366 144.088 31.0799C143.841 31.231 143.571 31.3392 143.288 31.3999C142.972 31.4659 142.65 31.4981 142.328 31.4959C142.216 31.4959 142.08 31.4959 141.912 31.4959C141.744 31.4959 141.584 31.4959 141.4 31.4319C141.232 31.4016 141.066 31.3588 140.904 31.3039C140.77 31.2485 140.643 31.1759 140.528 31.0879ZM143.728 32.5279C143.728 33.1359 143.272 33.4399 142.368 33.4399C142.237 33.4488 142.106 33.4488 141.976 33.4399V32.9119C142.12 32.9119 142.224 32.9119 142.312 32.9119C142.72 32.9119 142.944 32.784 142.944 32.52C142.944 32.256 142.752 32.1759 142.376 32.1759C142.317 32.1702 142.258 32.1702 142.2 32.1759V31.3519H142.848V31.792C143.079 31.7808 143.308 31.8485 143.496 31.9839C143.574 32.0505 143.636 32.1343 143.676 32.2287C143.716 32.3231 143.734 32.4255 143.728 32.5279Z" fill="#005487"/>
<path d="M151.664 31.3519H150.44L149.832 29.5999H147.152L146.576 31.3199H145.344L147.888 24.5439H149.152L151.664 31.3519ZM149.528 28.7199L148.592 26.0159C148.552 25.8743 148.523 25.7299 148.504 25.5839C148.491 25.7316 148.459 25.8769 148.408 26.0159L147.488 28.7199H149.528Z" fill="#005487"/>
<path d="M156.248 25.5439H153.72V27.5759H156.056V28.5279H153.72V31.3519H152.6V24.5759H156.264V25.5439H156.248Z" fill="#005487"/>
<path d="M165.408 24.5919L163.008 31.3679H161.752L159.352 24.5919H160.584L162.248 29.7279C162.307 29.9104 162.35 30.0978 162.376 30.2879C162.402 30.0919 162.448 29.8989 162.512 29.7119L164.224 24.5759H165.408V24.5919Z" fill="#005487"/>
<path d="M165.864 27.4879H171.008C170.98 26.9136 170.727 26.3735 170.304 25.9839C169.86 25.6036 169.288 25.4063 168.704 25.4319C168.02 25.4165 167.349 25.6151 166.784 25.9999V24.9679C167.408 24.6171 168.116 24.4429 168.832 24.4639C169.285 24.435 169.739 24.5027 170.164 24.6627C170.589 24.8227 170.975 25.0713 171.296 25.3919C171.607 25.7338 171.846 26.1342 172 26.5696C172.153 27.0051 172.219 27.4669 172.192 27.9279C172.225 28.8586 171.905 29.7675 171.296 30.4719C170.995 30.8067 170.624 31.0707 170.209 31.245C169.794 31.4193 169.346 31.4995 168.896 31.4799C168.464 31.5025 168.032 31.4231 167.636 31.248C167.24 31.0729 166.89 30.807 166.616 30.4719C166.041 29.5884 165.776 28.5385 165.864 27.4879ZM171.008 28.4239H167.08C167.065 28.9766 167.25 29.516 167.6 29.9439C167.772 30.1332 167.984 30.2822 168.221 30.3804C168.457 30.4785 168.712 30.5234 168.968 30.5119C169.232 30.5201 169.494 30.4739 169.739 30.3762C169.984 30.2785 170.206 30.1313 170.392 29.9439C170.77 29.5253 170.988 28.9872 171.008 28.4239Z" fill="#005487"/>
<path d="M71.9359 43.768H70.712L67.512 38.792C67.4351 38.6682 67.3656 38.54 67.3039 38.408C67.3247 38.7143 67.3247 39.0217 67.3039 39.328V43.768H66.2V37H67.5039L70.624 41.856C70.7194 41.9838 70.8024 42.1204 70.8719 42.264C70.8538 41.9629 70.8538 41.6611 70.8719 41.36V37H71.92V43.768H71.9359Z" fill="#005487"/>
<path d="M73.168 39.912H78.312C78.2997 39.6253 78.2305 39.3439 78.1082 39.0843C77.986 38.8247 77.8132 38.5921 77.6 38.4C77.1573 38.0175 76.5844 37.8199 76 37.848C75.3176 37.8323 74.647 38.0279 74.08 38.408V37.384C74.7021 37.0359 75.4076 36.8644 76.12 36.888C76.5733 36.8619 77.0271 36.9302 77.4526 37.0886C77.8781 37.2469 78.2661 37.4919 78.592 37.808C78.9017 38.1521 79.1402 38.554 79.294 38.9905C79.4478 39.4271 79.5137 39.8898 79.488 40.352C79.5177 41.2797 79.1979 42.1848 78.592 42.888C78.2912 43.2228 77.92 43.4868 77.5051 43.6611C77.0901 43.8354 76.6417 43.9156 76.192 43.896C75.7592 43.9212 75.3267 43.843 74.9302 43.6677C74.5337 43.4924 74.1846 43.2251 73.912 42.888C73.339 42.0067 73.0772 40.9592 73.168 39.912ZM78.312 40.848H74.4C74.3912 41.4011 74.5782 41.9395 74.928 42.368C75.1011 42.5558 75.3134 42.7033 75.5498 42.8001C75.7862 42.8969 76.0409 42.9405 76.296 42.928C76.5578 42.9361 76.8184 42.8907 77.0619 42.7944C77.3054 42.6981 77.5267 42.553 77.712 42.368C78.0837 41.9471 78.296 41.4092 78.312 40.848Z" fill="#005487"/>
<path d="M83.544 43.88C83.0892 43.8874 82.6375 43.803 82.216 43.632C81.8283 43.4733 81.4791 43.2332 81.192 42.928C80.9109 42.6143 80.6911 42.2507 80.544 41.856C80.3861 41.409 80.3076 40.9379 80.312 40.464C80.3065 39.9612 80.3849 39.4609 80.544 38.984C80.6853 38.5662 80.9114 38.1822 81.208 37.856C81.4981 37.5394 81.8565 37.2932 82.256 37.136C82.6969 36.9643 83.167 36.8801 83.64 36.888C84.0843 36.8829 84.525 36.9672 84.936 37.136C85.3163 37.2999 85.6592 37.5394 85.944 37.84C86.2306 38.1495 86.4511 38.5143 86.592 38.912C86.7494 39.3563 86.8279 39.8246 86.824 40.296C86.8358 40.8963 86.7242 41.4926 86.496 42.048C86.3021 42.5209 85.9943 42.9386 85.6 43.264L87.552 44.68H85.848L84.632 43.744L84.136 43.856C83.9395 43.8779 83.7417 43.886 83.544 43.88ZM83.6 37.88C83.3134 37.8718 83.0287 37.9296 82.7679 38.0489C82.5072 38.1681 82.2773 38.3457 82.096 38.568C81.9009 38.8036 81.7541 39.0755 81.664 39.368C81.5603 39.7048 81.509 40.0555 81.512 40.408C81.5107 40.7524 81.562 41.095 81.664 41.424C81.7494 41.7151 81.8907 41.9868 82.08 42.224C82.2566 42.4373 82.4778 42.6093 82.728 42.728C82.9767 42.8509 83.2507 42.9139 83.528 42.912C83.8273 42.9174 84.1243 42.8602 84.4 42.744C84.655 42.6366 84.8822 42.4724 85.064 42.264C85.2542 42.0286 85.3931 41.7561 85.472 41.464C85.5753 41.1243 85.6265 40.771 85.624 40.416C85.6318 40.0539 85.586 39.6926 85.488 39.344C85.406 39.0546 85.2703 38.7832 85.088 38.544C84.9231 38.3209 84.6985 38.1489 84.44 38.048C84.1732 37.9392 83.8882 37.8822 83.6 37.88Z" fill="#005487"/>
<path d="M91.808 43.768H88.056V37H89.168V42.816H91.792V43.768H91.808Z" fill="#005487"/>
<path d="M93.352 36.376C93.2003 36.3731 93.0538 36.3196 92.936 36.224C92.8851 36.1739 92.8447 36.1141 92.8172 36.0481C92.7898 35.9822 92.7757 35.9114 92.776 35.84C92.776 35.6934 92.8334 35.5527 92.936 35.448C93.0493 35.3446 93.1988 35.29 93.352 35.296C93.5047 35.2933 93.653 35.3475 93.768 35.448C93.8215 35.4978 93.8635 35.5587 93.8912 35.6264C93.9188 35.694 93.9314 35.7669 93.928 35.84C93.9302 35.9117 93.9171 35.983 93.8895 36.0492C93.8619 36.1155 93.8205 36.175 93.768 36.224C93.6538 36.3258 93.505 36.3802 93.352 36.376ZM93.944 43.768H92.8V37H93.96L93.944 43.768Z" fill="#005487"/>
<path d="M100.32 37.008L98.096 41.312V43.768H96.984V41.328L94.816 37H96.096L97.424 39.896C97.478 40.0208 97.5234 40.1491 97.56 40.28C97.5993 40.1478 97.6501 40.0193 97.712 39.896L99.104 37H100.304L100.32 37.008Z" fill="#005487"/>
<path d="M105.912 37.008L103.688 41.312V43.768H102.568V41.328L100.4 37H101.688L103.008 39.896C103.062 40.0215 103.111 40.1496 103.152 40.28C103.152 40.184 103.24 40.048 103.304 39.896L104.704 37H105.904L105.912 37.008Z" fill="#005487"/>
<path d="M111.592 43.768H110.4L109.792 42.048H107.128L106.552 43.768H105.32L107.856 37H109.128L111.592 43.768ZM109.456 41.136L108.52 38.4C108.478 38.2588 108.449 38.1142 108.432 37.968C108.413 38.1154 108.378 38.2603 108.328 38.4L107.408 41.104L109.456 41.136Z" fill="#005487"/>
<path d="M116.176 37.9599H114.232V43.7679H113.112V37.9599H111.2V37.0079H116.208V37.9599H116.176Z" fill="#005487"/>
<path d="M125.6 43.768H124.368L121.168 38.792C121.091 38.6699 121.024 38.5415 120.968 38.408C121.007 38.713 121.02 39.0208 121.008 39.328V43.768H119.92V37H121.232L124.352 41.856C124.488 42.064 124.568 42.2 124.6 42.264C124.569 41.9637 124.555 41.6619 124.56 41.36V37H125.6V43.768Z" fill="#005487"/>
<path d="M132.8 43.768H131.576L130.968 42.048H128.304L127.728 43.768H126.496L129.032 37H130.304L132.8 43.768ZM130.664 41.136L129.728 38.4C129.686 38.2588 129.657 38.1142 129.64 37.968C129.62 38.1143 129.588 38.2588 129.544 38.4L128.616 41.104L130.664 41.136Z" fill="#005487"/>
<path d="M138.56 37.4959L134.848 42.8159H138.504V43.7679H133.272V43.2639L137 37.9599H133.6V37.0079H138.6V37.4959H138.56Z" fill="#005487"/>
<path d="M140.168 36.3759C140.018 36.3745 139.874 36.3207 139.76 36.2239C139.707 36.1754 139.664 36.1161 139.635 36.0499C139.606 35.9837 139.591 35.9122 139.592 35.8399C139.592 35.7666 139.607 35.6939 139.635 35.6265C139.664 35.5591 139.707 35.4983 139.76 35.4479C139.814 35.3966 139.879 35.3568 139.949 35.3306C140.019 35.3045 140.093 35.2927 140.168 35.2959C140.321 35.2933 140.469 35.3474 140.584 35.4479C140.639 35.4973 140.682 35.5579 140.711 35.6256C140.74 35.6932 140.754 35.7663 140.752 35.8399C140.753 35.9122 140.738 35.9837 140.709 36.0499C140.68 36.1161 140.638 36.1754 140.584 36.2239C140.529 36.2766 140.464 36.3173 140.392 36.3435C140.32 36.3696 140.244 36.3807 140.168 36.3759ZM140.768 43.7679H139.608V36.9999H140.8L140.768 43.7679Z" fill="#005487"/>
<path d="M147.664 43.768H146.352L145.28 41.968C145.191 41.8177 145.092 41.6734 144.984 41.536C144.903 41.4265 144.806 41.3294 144.696 41.248C144.598 41.1765 144.49 41.1199 144.376 41.08C144.252 41.0383 144.122 41.0193 143.992 41.024H143.536V43.768H142.4V37H144.616C144.915 37.0006 145.213 37.0355 145.504 37.104C145.758 37.1789 145.996 37.298 146.208 37.456C146.402 37.606 146.561 37.7973 146.672 38.016C146.788 38.2666 146.845 38.5401 146.84 38.816C146.841 39.0421 146.803 39.2666 146.728 39.48C146.662 39.6767 146.559 39.8587 146.424 40.016C146.294 40.1759 146.137 40.3114 145.96 40.416C145.766 40.5306 145.556 40.6142 145.336 40.664C145.45 40.7309 145.557 40.8086 145.656 40.896C145.747 40.978 145.833 41.0662 145.912 41.16C146.003 41.2544 146.086 41.3561 146.16 41.464C146.248 41.576 146.328 41.712 146.424 41.848L147.664 43.768ZM143.552 37.92V40.112H144.488C144.654 40.1154 144.82 40.0883 144.976 40.032C145.12 39.985 145.251 39.9056 145.36 39.8C145.474 39.6981 145.559 39.5686 145.608 39.424C145.671 39.2717 145.703 39.1087 145.704 38.944C145.719 38.7962 145.7 38.6468 145.647 38.5079C145.594 38.369 145.51 38.2444 145.4 38.144C145.15 37.9478 144.837 37.8483 144.52 37.864H143.552V37.92Z" fill="#005487"/>
<path d="M152.2 43.768H148.448V37H149.6V42.816H152.224V43.768H152.2Z" fill="#005487"/>
<path d="M153.736 36.376C153.584 36.3731 153.438 36.3196 153.32 36.224C153.266 36.1754 153.224 36.1161 153.195 36.0499C153.166 35.9838 153.151 35.9122 153.152 35.84C153.152 35.7666 153.166 35.694 153.195 35.6265C153.224 35.5591 153.267 35.4983 153.32 35.448C153.433 35.3446 153.583 35.29 153.736 35.296C153.889 35.2933 154.037 35.3475 154.152 35.448C154.204 35.4987 154.245 35.5598 154.273 35.6272C154.301 35.6947 154.314 35.7671 154.312 35.84C154.312 35.9114 154.298 35.9822 154.271 36.0481C154.243 36.1141 154.203 36.1739 154.152 36.224C154.097 36.2767 154.032 36.3174 153.96 36.3435C153.888 36.3697 153.812 36.3807 153.736 36.376ZM154.328 43.768H153.168V37H154.328V43.768Z" fill="#005487"/>
<path d="M160.72 37.008L158.496 41.312V43.768H157.376V41.328L155.2 37H156.488L157.808 39.896C157.862 40.0215 157.91 40.1496 157.952 40.28C157.952 40.184 158.04 40.048 158.104 39.896L159.504 37H160.704L160.72 37.008Z" fill="#005487"/>
<path d="M162.136 36.3759C161.986 36.3745 161.842 36.3207 161.728 36.2239C161.674 36.1754 161.632 36.1161 161.603 36.0499C161.574 35.9837 161.559 35.9122 161.56 35.8399C161.56 35.7666 161.574 35.6939 161.603 35.6265C161.632 35.5591 161.675 35.4983 161.728 35.4479C161.782 35.3966 161.847 35.3568 161.917 35.3306C161.987 35.3045 162.061 35.2927 162.136 35.2959C162.289 35.2933 162.437 35.3474 162.552 35.4479C162.606 35.4973 162.65 35.5579 162.679 35.6256C162.708 35.6932 162.722 35.7663 162.72 35.8399C162.721 35.9122 162.706 35.9837 162.677 36.0499C162.648 36.1161 162.605 36.1754 162.552 36.2239C162.439 36.3272 162.289 36.3818 162.136 36.3759ZM162.728 43.7679H161.6V36.9999H162.752L162.728 43.7679Z" fill="#005487"/>
</svg>
