<svg width="304" height="83" viewBox="0 0 304 83" fill="none" xmlns="http://www.w3.org/2000/svg">
<g clip-path="url(#clip0_348_11069)">
<path d="M36.7975 44.835C35.7952 44.8349 34.824 44.4873 34.0494 43.8513C33.2747 43.2153 32.7446 42.3304 32.5494 41.3473C32.3542 40.3643 32.506 39.344 32.9788 38.4603C33.4517 37.5766 34.2163 36.8842 35.1425 36.5012C36.0687 36.1182 37.099 36.0682 38.0579 36.3598C39.0168 36.6514 39.8449 37.2665 40.4011 38.1003C40.9572 38.9341 41.207 39.935 41.1078 40.9323C41.0086 41.9296 40.5667 42.8617 39.8572 43.5696C39.4557 43.9717 38.9787 44.2905 38.4536 44.5077C37.9285 44.7248 37.3657 44.8361 36.7975 44.835ZM19.8837 31.9711C20.3037 31.7281 20.6265 31.3471 20.7971 30.8928C20.9677 30.4386 20.9756 29.9393 20.8193 29.4799C20.6631 29.0206 20.3524 28.6296 19.9403 28.3735C19.5281 28.1175 19.0399 28.0123 18.5589 28.0758C18.0778 28.1393 17.6337 28.3676 17.3021 28.7219C16.9705 29.0761 16.772 29.5343 16.7403 30.0185C16.7087 30.5027 16.8459 30.9828 17.1285 31.3772C17.4111 31.7716 17.8218 32.0558 18.2904 32.1814C18.8285 32.3249 19.4014 32.2493 19.8837 31.9711ZM52.9315 31.1945C53.1736 31.615 53.5541 31.9386 54.008 32.1101C54.4619 32.2816 54.9612 32.2904 55.4209 32.1351C55.8806 31.9797 56.2722 31.6698 56.529 31.2581C56.7858 30.8464 56.892 30.3585 56.8294 29.8773C56.7668 29.3961 56.5393 28.9515 56.1857 28.6193C55.8321 28.287 55.3742 28.0876 54.8901 28.055C54.4059 28.0225 53.9255 28.1588 53.5306 28.4407C53.1357 28.7226 52.8507 29.1328 52.7242 29.6012C52.6524 29.8674 52.6337 30.1451 52.6693 30.4185C52.7049 30.6919 52.794 30.9556 52.9315 31.1945ZM35.7487 59.4222C35.5088 59.559 35.2986 59.7422 35.1303 59.961C34.9619 60.1798 34.8387 60.43 34.7679 60.6968C34.6411 61.1668 34.6812 61.6663 34.8813 62.11C35.0815 62.5538 35.4294 62.9144 35.8656 63.1303C36.3019 63.3463 36.7996 63.4043 37.2738 63.2945C37.7481 63.1846 38.1695 62.9137 38.4664 62.5279C38.7632 62.1421 38.9171 61.6652 38.9018 61.1787C38.8864 60.6921 38.7028 60.2259 38.3822 59.8596C38.0616 59.4932 37.6239 59.2494 37.1437 59.1696C36.6635 59.0899 36.1704 59.1791 35.7487 59.4222ZM73.5949 19.2649V54.3824C73.5925 56.623 73.0017 58.8236 71.8816 60.7641C70.7615 62.7046 69.1514 64.3169 67.2124 65.4396L52.0034 74.2197L36.7975 82.9999L21.5915 74.2197L6.38247 65.4396C4.4435 64.3169 2.8334 62.7046 1.7133 60.7641C0.5932 58.8236 0.00239204 56.623 0 54.3824L0 19.2649L15.2059 10.4847L30.415 1.70458C32.3567 0.587842 34.5575 0.00012207 36.7975 0.00012207C39.0374 0.00012207 41.2382 0.587842 43.1799 1.70458L58.389 10.4847L73.5949 19.2649ZM51.066 7.99114C53.3229 10.2427 55.2969 12.761 56.9442 15.4905C58.8503 18.6475 60.1875 22.1146 60.8949 25.734L66.1203 22.7176L71.3488 19.698L61.2043 13.8446L51.066 7.99114ZM15.7783 11.8924C20.8552 10.5528 27.4047 9.8041 34.177 11.6758C40.9493 13.5476 47.9536 18.0428 53.8968 27.1819C53.7792 27.2169 53.6617 27.2572 53.5441 27.3025C53.4274 27.3503 53.3138 27.405 53.2038 27.4665C52.9778 27.5967 52.7698 27.7558 52.585 27.9399C52.408 28.1193 52.2523 28.3187 52.121 28.5339C51.3967 28.1387 50.6179 27.853 49.8099 27.6862C48.8737 27.4926 47.9196 27.3983 46.9636 27.4046C46.7718 27.4046 46.5738 27.4046 46.3727 27.4232L45.754 27.4603C46.165 28.5175 46.5132 29.5981 46.7966 30.6964C47.1047 31.8852 47.3505 33.0893 47.5329 34.3038C48.4948 35.0698 49.4159 35.8856 50.2925 36.7479C51.1028 37.5444 51.8662 38.3874 52.5788 39.2724C53.2456 38.2958 53.7969 37.2451 54.2216 36.1415C54.5834 35.2128 54.7853 34.2295 54.8187 33.2333C55.0708 33.2277 55.3211 33.1914 55.5643 33.125C55.816 33.0534 56.0573 32.9494 56.2821 32.8157C56.3723 32.7658 56.4592 32.71 56.542 32.6486C56.6246 32.5899 56.7041 32.5269 56.7802 32.4599C57.8161 35.015 58.3477 37.7465 58.3456 40.5037C58.3456 40.6089 58.3456 40.7141 58.3456 40.8131V41.1225C58.8747 39.4349 59.2759 37.7099 59.546 35.962C59.8034 34.2938 59.9214 32.607 59.8987 30.9192C59.8628 28.4067 59.4945 25.91 58.8035 23.4941C58.0944 21.0254 57.0756 18.6563 55.7716 16.4434C53.8474 13.2096 51.457 10.2772 48.6776 7.74055C46.8817 6.08646 44.9437 4.59363 42.886 3.27931L42.4281 3.00397C40.7145 2.01892 38.7725 1.50053 36.7959 1.50053C34.8193 1.50053 32.8773 2.01892 31.1637 3.00397L23.4663 7.44973L15.7783 11.8924ZM19.3392 50.3698C19.3609 50.4131 19.3856 50.4564 19.4104 50.4966L19.4846 50.6235C20.1424 51.6563 21.1204 52.4452 22.269 52.8696C23.6629 53.3955 25.1451 53.6476 26.6344 53.6121C26.8262 53.6121 27.0242 53.6121 27.2253 53.6121L27.844 53.5749C27.4325 52.5169 27.0844 51.4352 26.8014 50.3357C26.4862 49.1433 26.2342 47.9351 26.0466 46.716C25.0854 45.9491 24.1643 45.1334 23.2869 44.2719C22.4765 43.4743 21.7132 42.6304 21.0006 41.7443C20.0121 43.1502 19.3031 44.733 18.9123 46.4066C18.6029 47.8762 18.7359 49.2251 19.3392 50.3698ZM20.0756 40.5099C19.4543 39.6295 18.9089 38.6981 18.4451 37.7255C18.037 36.8601 17.7258 35.9522 17.517 35.0184C17.2661 35.9007 17.0749 36.7989 16.9446 37.7069C16.5506 40.4843 16.7456 43.3136 17.517 46.0106C17.7258 45.0779 18.0371 44.171 18.4451 43.3067C18.9082 42.3337 19.4537 41.4022 20.0756 40.5223M25.5887 40.5223C25.5887 39.8231 25.6062 39.1352 25.6413 38.4587C25.6722 37.7781 25.7217 37.1098 25.7836 36.4539C25.0256 37.116 24.3171 37.7905 23.6674 38.4711C23.0417 39.1239 22.45 39.8086 21.8947 40.5223C22.4508 41.2353 23.0425 41.9199 23.6674 42.5734C24.3171 43.2541 25.0256 43.9285 25.7836 44.5906C25.7217 43.9316 25.6722 43.2634 25.6413 42.5858C25.6103 41.9083 25.5887 41.2184 25.5887 40.5223ZM22.4268 54.4845C23.7094 55.8042 25.1667 56.942 26.7581 57.866C28.3723 58.8048 30.1105 59.5119 31.9216 59.9667C31.2178 59.3171 30.5889 58.5907 30.0468 57.801C29.4347 56.9113 28.8986 55.9716 28.4442 54.9919C28.1349 55.0228 27.8255 55.0414 27.5161 55.0569C27.2067 55.0723 26.9159 55.0785 26.622 55.0785C25.8758 55.0802 25.1305 55.0295 24.3914 54.9269C23.7243 54.8315 23.0662 54.6815 22.4237 54.4783M29.3383 53.3955C30.2344 53.2724 31.1235 53.1031 32.0021 52.8881C32.9178 52.6654 33.8542 52.39 34.8112 52.0621C34.1925 51.7857 33.5861 51.4939 32.9921 51.1865C32.3733 50.8772 31.7855 50.5523 31.1915 50.2089C30.5975 49.8655 30.0097 49.5004 29.4312 49.1415C28.8526 48.7827 28.305 48.3959 27.7667 48.0123C27.9616 48.9992 28.1905 49.9459 28.4535 50.8462C28.7049 51.7129 29.0013 52.5659 29.3414 53.4017M36.7975 51.3227C37.6018 50.9916 38.4124 50.6328 39.2261 50.2367C40.0397 49.8407 40.8534 49.4107 41.6671 48.9405C42.4807 48.4702 43.2604 47.9845 44.0122 47.4802C44.7639 46.9759 45.4848 46.4531 46.1778 45.9333C46.2954 45.0732 46.3851 44.1884 46.447 43.285C46.5088 42.3816 46.5398 41.4597 46.5398 40.5223C46.5398 39.5849 46.5088 38.666 46.447 37.7564C46.3851 36.8469 46.2954 35.9713 46.1778 35.1082C45.491 34.576 44.7691 34.0604 44.0122 33.5613C43.2552 33.0621 42.4735 32.5743 41.6671 32.0979C40.8534 31.6307 40.0366 31.2007 39.2261 30.8047C38.4155 30.4087 37.6018 30.0467 36.7975 29.7188C35.9931 30.0467 35.1835 30.4087 34.3688 30.8047C33.5583 31.2007 32.7415 31.6307 31.9309 32.0979C31.1204 32.5651 30.3345 33.057 29.5828 33.5613C28.831 34.0655 28.1101 34.5853 27.4171 35.1082C27.2995 35.9713 27.2098 36.8561 27.1479 37.7564C27.0861 38.6567 27.0551 39.5849 27.0551 40.5223C27.0551 41.4597 27.0861 42.3785 27.1479 43.285C27.2098 44.1915 27.2995 45.0732 27.4171 45.9333C28.1039 46.4654 28.8248 46.9883 29.5828 47.4802C30.3407 47.9721 31.1296 48.4733 31.9309 48.9405C32.7322 49.4076 33.5583 49.8407 34.3688 50.2367C35.1794 50.6328 35.9931 50.9916 36.7975 51.3227ZM45.1692 26.0186C45.4786 25.9908 45.788 25.9691 46.0974 25.9567C46.4067 25.9444 46.7161 25.9351 46.9946 25.9351C47.7397 25.9335 48.484 25.9842 49.2221 26.0867C49.8894 26.1806 50.5476 26.3307 51.1897 26.5353C49.9064 25.2155 48.4493 24.0769 46.8584 23.1507C45.2441 22.2129 43.5059 21.5068 41.6949 21.0531C42.3988 21.7027 43.0277 22.4291 43.5697 23.2187C44.1811 24.1051 44.7162 25.0418 45.1692 26.0186ZM44.2411 27.615C43.345 27.7392 42.4559 27.9096 41.5773 28.1255C40.6492 28.3482 39.7211 28.6236 38.7713 28.9515C39.3777 29.2258 39.983 29.5177 40.5873 29.8271C41.2061 30.1364 41.7939 30.4458 42.3879 30.8047C42.9819 31.1636 43.5821 31.5101 44.1514 31.8782C44.7206 32.2464 45.2775 32.6207 45.8158 33.0044C45.6209 32.0206 45.392 31.0739 45.129 30.1736C44.8776 29.3059 44.5812 28.4519 44.2411 27.615ZM36.7975 20.4498C35.4671 20.4498 34.1987 21.0005 33.0447 21.9967C31.7442 23.1847 30.6926 24.619 29.9509 26.2166C31.0832 26.394 32.204 26.6378 33.3077 26.9468C34.4846 27.2769 35.6442 27.6662 36.782 28.1131C37.9198 27.6662 39.0793 27.2769 40.2563 26.9468C41.363 26.6374 42.487 26.3936 43.6223 26.2166C42.8806 24.619 41.829 23.1847 40.5286 21.9967C39.3746 21.0005 38.1061 20.4498 36.7758 20.4498M31.8907 21.0686C28.2877 21.9801 25.0083 23.8736 22.4175 26.5384C23.0614 26.3324 23.7218 26.1823 24.3914 26.0898C25.1313 25.9846 25.8778 25.9329 26.6251 25.9351C26.9345 25.9351 27.2191 25.9351 27.5223 25.9567C27.8255 25.9784 28.141 25.9908 28.4504 26.0186C28.9002 25.037 29.4322 24.0952 30.0406 23.2033C30.5816 22.4137 31.2095 21.6873 31.9124 21.0376M27.7667 32.9858C28.305 32.6022 28.8598 32.2268 29.4312 31.8597C30.0035 31.4915 30.5882 31.1326 31.1946 30.7861C31.801 30.4396 32.3919 30.1148 32.9952 29.8085C33.5985 29.5022 34.2049 29.2083 34.8143 28.933C33.8573 28.605 32.9209 28.3297 32.0052 28.1069C31.1267 27.891 30.2376 27.7206 29.3414 27.5964C29.0039 28.4396 28.7106 29.2998 28.4628 30.1736C28.1998 31.0739 27.9709 32.0298 27.776 33.0044M38.7898 52.0683C39.7469 52.3962 40.6832 52.6716 41.599 52.8943C42.4776 53.1093 43.3667 53.2786 44.2628 53.4017C44.6029 52.5659 44.8993 51.7129 45.1507 50.8462C45.4136 49.9459 45.6426 48.99 45.8375 48.0123C45.2992 48.3959 44.7423 48.7734 44.173 49.1415C43.6038 49.5097 43.0129 49.8655 42.4096 50.2151C41.8063 50.5647 41.2123 50.8833 40.609 51.1927C40.0057 51.5021 39.3993 51.7929 38.7898 52.0683ZM41.6918 59.9636C45.304 59.0523 48.5915 57.1541 51.1866 54.4814C50.542 54.6846 49.8819 54.8346 49.2128 54.93C48.4729 55.0352 47.7264 55.0869 46.9791 55.0847C46.6852 55.0847 46.3851 55.0847 46.0819 55.063C45.7787 55.0414 45.4631 55.029 45.1538 54.9981C44.7018 55.9764 44.1666 56.9142 43.5543 57.801C43.0122 58.5898 42.3844 59.3161 41.6825 59.9667M54.1226 50.6111C54.1474 50.5709 54.169 50.5307 54.1907 50.4904L54.2588 50.3698C54.859 49.2251 54.9796 47.8762 54.6826 46.4097C54.2908 44.7355 53.5819 43.1518 52.5943 41.7443C51.8826 42.6311 51.1192 43.4751 50.308 44.2719C49.4306 45.1334 48.5095 45.9491 47.5483 46.716C47.3663 47.9295 47.1205 49.1326 46.812 50.3203C46.5291 51.4197 46.1809 52.5014 45.7694 53.5595L46.3882 53.5966C46.5893 53.5966 46.7873 53.5966 46.9791 53.5966C48.4716 53.636 49.9578 53.3882 51.3568 52.8665C52.507 52.4385 53.4851 51.6452 54.1412 50.608M48.0248 40.5099C48.0248 41.206 48.0062 41.8959 47.9753 42.5734C47.9444 43.251 47.8918 43.9192 47.8299 44.5782C48.5879 43.9161 49.2963 43.2417 49.946 42.5611C50.571 41.9075 51.1627 41.2229 51.7188 40.5099C51.1634 39.7962 50.5717 39.1116 49.946 38.4587C49.2963 37.7781 48.5879 37.1036 47.8299 36.4416C47.8918 37.0975 47.9402 37.7657 47.9753 38.4463C48.0062 39.1239 48.0248 39.8107 48.0248 40.5099ZM56.1058 46.0075C56.8769 43.3104 57.0719 40.4812 56.6781 37.7038C56.5485 36.7957 56.3573 35.8975 56.1058 35.0153C55.8965 35.948 55.5852 36.8547 55.1776 37.7193C54.7127 38.6913 54.1673 39.6226 53.5472 40.5037C54.1684 41.3841 54.7139 42.3155 55.1776 43.2881C55.5857 44.1535 55.897 45.0614 56.1058 45.9952M2.27393 19.698L7.73446 22.8568L13.1981 26.0186C16.0887 23.8024 19.3407 22.1026 22.8105 20.9943C26.6127 19.7568 31.0492 19.0081 36.222 18.9555H36.5097H36.7975C40.8047 18.9509 44.7329 20.0699 48.1362 22.1854C46.9354 20.8825 45.6385 19.6715 44.2566 18.5626C42.9395 17.5037 41.5362 16.5568 40.0614 15.7318C37.8937 14.5218 35.5776 13.5993 33.1715 12.9876C30.7117 12.3681 28.1841 12.0584 25.6475 12.0657H25.4618C21.6988 12.1134 17.9634 12.717 14.3768 13.857C12.0405 14.5832 9.77322 15.5149 7.60142 16.6414L7.42508 16.7063L4.83558 18.2006L2.27393 19.698ZM1.50358 44.4112C2.32516 41.3334 3.51888 38.3673 5.05833 35.5784C6.84044 32.3502 9.17562 29.46 11.9575 27.0396L6.72898 24.02L1.50358 20.9974V44.4112ZM22.5413 73.0255C18.8288 69.313 14.9182 64.0041 13.1517 57.2039C11.3851 50.4038 11.7564 42.1032 16.7064 32.3763C16.8939 32.5546 17.1016 32.7103 17.3252 32.8404C17.5504 32.9756 17.7929 33.0797 18.046 33.1498C18.1651 33.1819 18.2859 33.2067 18.408 33.224C18.5318 33.224 18.6524 33.2488 18.7731 33.2519C18.8064 34.2463 19.0094 35.2278 19.3733 36.1538C19.7982 37.2558 20.3483 38.3053 21.013 39.2817C21.7256 38.3966 22.489 37.5537 23.2993 36.7571C24.1759 35.8949 25.097 35.0791 26.0589 34.313C26.2413 33.0986 26.4871 31.8945 26.7953 30.7057C27.0786 29.6074 27.4268 28.5268 27.8379 27.4696L27.2191 27.4325C27.018 27.4325 26.82 27.4139 26.6282 27.4139C25.6712 27.4076 24.7161 27.5019 23.7788 27.6954C22.9709 27.864 22.1922 28.1507 21.4678 28.5462C21.2807 28.2403 21.0408 27.9701 20.7593 27.748C20.4811 27.528 20.1671 27.3574 19.8311 27.2438C21.6636 24.8946 23.9605 22.9483 26.5787 21.5264C24.8509 21.9138 23.1549 22.4309 21.5049 23.0733C19.9296 23.6832 18.4083 24.4242 16.957 25.2885C14.8009 26.5758 12.8244 28.1424 11.0788 29.9477C9.29945 31.7974 7.76004 33.8638 6.49694 36.0982C4.65824 39.3822 3.31347 42.9193 2.50596 46.5954C1.96503 48.9799 1.63683 51.4077 1.52523 53.8503C1.52523 53.8967 1.52523 54.3824 1.52523 54.3824C1.52839 56.3593 2.05002 58.3007 3.03805 60.0129C4.02608 61.7252 5.44595 63.1483 7.15592 64.1402L14.8533 68.5829L22.5413 73.0255ZM36.058 68.1931C32.6257 66.7684 29.4705 64.7515 26.7365 62.2344C23.7077 59.4841 20.7995 55.9046 18.1358 51.2917C16.2372 48.0172 15.2402 44.2981 15.2462 40.513V40.2036C15.2462 40.0984 15.2462 39.9932 15.2462 39.8942C14.7196 41.5823 14.3194 43.3072 14.0489 45.0547C13.7914 46.7229 13.6734 48.4097 13.6962 50.0975C13.7326 52.6098 14.0998 55.1063 14.7883 57.5226C15.5013 59.9905 16.5209 62.3592 17.8233 64.5733C19.7475 67.8079 22.1391 70.7405 24.9204 73.2761C26.7139 74.9386 28.6521 76.4378 30.712 77.7559L30.8079 77.8178L30.876 77.8642L33.4624 79.3585L36.0488 80.8497V68.1931H36.058ZM57.8352 69.1212C56.2908 69.5328 54.7237 69.8541 53.1419 70.0834C51.4062 70.3352 49.6549 70.4634 47.901 70.467C46.199 70.4686 44.4995 70.3372 42.818 70.0741C41.0288 69.7967 39.2684 69.3576 37.5585 68.7623V80.8281L47.6968 74.9746L57.8352 69.1212ZM72.0851 36.6055C70.7084 41.6732 68.0818 47.7215 63.076 52.6499C58.0703 57.5783 50.6823 61.3898 39.786 61.9838C39.8777 61.6137 39.9008 61.2299 39.8541 60.8515C39.8037 60.4735 39.6853 60.1076 39.5045 59.7718C40.3523 59.2456 41.1036 58.578 41.7258 57.798C42.4695 56.8754 43.1048 55.8706 43.6192 54.8032C42.4869 54.6247 41.3661 54.3799 40.2625 54.0699C39.0882 53.7409 37.9317 53.3516 36.7975 52.9036C35.6601 53.3509 34.5005 53.7392 33.3231 54.0668C32.2195 54.3768 31.0987 54.6216 29.9664 54.8001C30.4826 55.8682 31.1189 56.874 31.8629 57.798C32.486 58.5772 33.2371 59.2446 34.0842 59.7718C33.9152 60.0871 33.8021 60.4294 33.7501 60.7835C33.697 61.1403 33.7075 61.5038 33.781 61.857C30.8264 61.4431 27.9913 60.4145 25.4587 58.8375C26.6593 60.1435 27.9561 61.3576 29.3383 62.4696C30.6559 63.5277 32.0592 64.4746 33.5335 65.3004C35.733 66.5261 38.0851 67.4551 40.5286 68.0631C43.0208 68.6808 45.581 68.9822 48.1485 68.9603C51.9118 68.9113 55.6471 68.3067 59.2336 67.1659C61.5702 66.4408 63.8377 65.509 66.0089 64.3815L66.4761 64.1247C68.1789 63.1305 69.5924 61.7084 70.5762 59.9995C71.5601 58.2906 72.0802 56.3543 72.0851 54.3824V36.6055ZM72.0851 20.9974L66.6215 24.1593L61.1486 27.318C61.6251 31.0012 61.4524 34.7393 60.6381 38.3628C59.7688 42.36 58.1229 46.6696 55.4591 51.2824C53.4573 54.7435 50.5389 57.5849 47.0255 59.4933C48.7549 59.1045 50.4529 58.5875 52.1055 57.9465C53.679 57.3336 55.1991 56.5916 56.6503 55.7282C58.8071 54.4419 60.7837 52.8752 62.5284 51.069C64.3122 49.2208 65.8548 47.1542 67.1196 44.9185C68.9588 41.635 70.3026 38.0977 71.1075 34.4213C71.646 32.0375 71.9732 29.6108 72.0851 27.1695C72.0851 27.1231 72.0851 26.9963 72.0851 26.9746V20.9974Z" fill="#3A55A5"/>
<path d="M89.5835 24.5491H92.1112L92.3339 25.8732H92.4113C93.2899 25.0255 94.3449 24.2954 95.768 24.2954C98.0419 24.2954 99.0103 25.9011 99.0103 28.5122V35.0092H95.9072V28.9082C95.9072 27.4047 95.505 26.9344 94.6078 26.9344C93.8313 26.9344 93.3549 27.2964 92.6742 27.9492V35.003H89.5804L89.5835 24.5491Z" fill="#3A55A5"/>
<path d="M101.634 24.5491H104.162L104.384 25.8732H104.462C105.34 25.0255 106.395 24.2954 107.818 24.2954C110.092 24.2954 111.064 25.9011 111.064 28.5122V35.0092H107.973V28.9082C107.973 27.4047 107.571 26.9344 106.677 26.9344C105.897 26.9344 105.439 27.2964 104.74 27.9492V35.003H101.646L101.634 24.5491Z" fill="#3A55A5"/>
<path d="M113.078 29.7776C113.078 26.3033 115.525 24.2954 118.17 24.2954C120.815 24.2954 123.262 26.2971 123.262 29.7776C123.262 33.2581 120.815 35.2691 118.183 35.2691C115.55 35.2691 113.09 33.2612 113.09 29.7931M120.101 29.7931C120.101 27.9863 119.463 26.8107 118.183 26.8107C116.902 26.8107 116.264 27.9863 116.264 29.7931C116.264 31.5998 116.902 32.7693 118.183 32.7693C119.463 32.7693 120.101 31.6029 120.101 29.7931Z" fill="#3A55A5"/>
<path d="M124.101 24.5491H127.213L128.571 29.4991C128.841 30.5355 129.116 31.6184 129.382 32.7105H129.469C129.735 31.6184 130.01 30.5448 130.279 29.4991L131.637 24.5491H134.604L131.201 35.003H127.622L124.101 24.5491Z" fill="#3A55A5"/>
<path d="M135.328 32.101C135.328 29.9013 137.079 28.6979 141.206 28.2709C141.145 27.3583 140.69 26.7612 139.554 26.7612C138.679 26.7612 137.803 27.1293 136.789 27.6893L135.693 25.6783C137.021 24.8132 138.564 24.3344 140.148 24.2954C142.821 24.2954 144.303 25.8237 144.303 29.0258V34.9999H141.776L141.553 33.9295H141.476C140.597 34.7029 139.619 35.2536 138.434 35.2536C136.529 35.2536 135.319 33.8645 135.319 32.101M141.197 31.9649V30.1396C138.997 30.4489 138.277 31.0677 138.277 31.8566C138.277 32.5311 138.741 32.859 139.477 32.859C140.213 32.859 140.65 32.5125 141.197 31.9649Z" fill="#3A55A5"/>
<path d="M145.986 33.7933L147.382 31.8659C148.328 32.5806 149.201 32.9642 150.076 32.9642C151.004 32.9642 151.397 32.6115 151.397 32.0639C151.397 31.3771 150.361 31.0646 149.284 30.6408C148.003 30.1458 146.518 29.295 146.518 27.5686C146.518 25.6226 148.102 24.2954 150.513 24.2954C151.855 24.3079 153.154 24.7746 154.197 25.6195L152.811 27.4758C152.066 26.9375 151.332 26.5848 150.612 26.5848C149.81 26.5848 149.417 26.8942 149.417 27.4201C149.417 28.0853 150.395 28.3483 151.478 28.735C152.802 29.2238 154.293 29.9725 154.293 31.8783C154.293 33.784 152.802 35.2691 149.999 35.2691C148.536 35.2293 147.125 34.717 145.977 33.8088" fill="#3A55A5"/>
<path d="M161.743 38.8764L162.294 36.5158C162.522 36.5878 162.757 36.6335 162.996 36.652C164.02 36.652 164.543 36.0889 164.827 35.2783L164.982 34.7338L160.96 24.5491H164.073L165.567 29.0474C165.876 29.9941 166.118 30.9841 166.393 32.0082H166.476C166.708 31.0213 166.944 30.0282 167.203 29.0474L168.472 24.5491H171.436L167.797 35.1143C166.804 37.7348 165.691 39.0899 163.231 39.0899C162.727 39.0975 162.225 39.0254 161.743 38.8764Z" fill="#3A55A5"/>
<path d="M172.135 32.101C172.135 29.9013 173.886 28.6979 178.013 28.2709C177.951 27.3583 177.497 26.7612 176.361 26.7612C175.486 26.7612 174.61 27.1293 173.595 27.6893L172.5 25.6783C173.831 24.8116 175.377 24.3327 176.964 24.2954C179.637 24.2954 181.119 25.8237 181.119 29.0258V34.9999H178.592L178.369 33.9295H178.292C177.413 34.7029 176.435 35.2536 175.25 35.2536C173.345 35.2536 172.135 33.8645 172.135 32.101ZM178.013 31.9649V30.1396C175.814 30.4489 175.093 31.0677 175.093 31.8566C175.093 32.5311 175.557 32.859 176.293 32.859C177.029 32.859 177.466 32.5125 178.013 31.9649Z" fill="#3A55A5"/>
<path d="M186.821 24.5491H189.934L191.295 29.4991C191.561 30.5355 191.836 31.6184 192.105 32.7105H192.189C192.458 31.6184 192.73 30.5448 192.999 29.4991L194.361 24.5491H197.325L193.921 35.003H190.345L186.821 24.5491Z" fill="#3A55A5"/>
<path d="M198.355 30.1984C198.352 29.7373 198.395 29.2771 198.485 28.8248H204.737C204.493 27.3459 203.639 26.6591 202.333 26.6591C201.519 26.6713 200.726 26.9137 200.044 27.3583L199.02 25.3535C200.17 24.6345 201.506 24.2677 202.862 24.2985C205.619 24.2985 207.738 26.3683 207.738 29.7745C207.738 33.1808 205.452 35.2691 202.844 35.2691C199.874 35.2691 198.355 33.1035 198.355 30.2139M204.771 30.8883H201C201 32.0825 201.529 32.9085 202.773 32.9085C203.791 32.9085 204.564 32.2898 204.771 30.8883Z" fill="#3A55A5"/>
<path d="M225.076 35.0031L221.982 29.5085C223.448 28.8464 224.429 27.5656 224.429 25.5454C224.429 22.2814 222.041 21.2698 219.129 21.2698H214.179V35.0031H217.273V30.053H218.978L221.601 35.0031H225.076ZM217.273 23.7355H218.86C220.494 23.7355 221.369 24.1872 221.369 25.5454C221.369 26.9036 220.494 27.5966 218.86 27.5966H217.273V23.7355Z" fill="#3A55A5"/>
<path d="M226.227 30.1984C226.225 29.7374 226.269 29.2774 226.357 28.8248H232.609C232.365 27.346 231.511 26.6591 230.208 26.6591C229.394 26.6708 228.601 26.9133 227.919 27.3583L226.895 25.3536C228.045 24.6342 229.381 24.2674 230.737 24.2986C233.494 24.2986 235.61 26.3683 235.61 29.7746C235.61 33.1808 233.327 35.2691 230.716 35.2691C227.746 35.2691 226.227 33.1035 226.227 30.2139M232.653 30.8729H228.872C228.872 32.0671 229.404 32.8931 230.648 32.8931C231.663 32.8931 232.436 32.2744 232.643 30.8729" fill="#3A55A5"/>
<path d="M243.985 35.6929L244.096 34.0965C243.4 34.7987 242.464 35.212 241.476 35.2536C238.877 35.2536 237.2 33.1931 237.2 29.7776C237.2 26.3621 239.335 24.2954 241.532 24.2954C242.667 24.2954 243.493 24.6883 244.316 25.5793H244.409L244.669 24.5491H247.091V38.8795H243.997L243.985 35.6929ZM243.985 31.7824V27.4913C243.51 27.0566 242.887 26.8197 242.243 26.8292C241.241 26.8292 240.362 27.7574 240.362 29.7436C240.362 31.7947 241.071 32.7198 242.271 32.7198C242.61 32.723 242.945 32.6394 243.243 32.477C243.54 32.3145 243.792 32.0786 243.973 31.7916" fill="#3A55A5"/>
<path d="M249.213 30.1983C249.211 29.7372 249.254 29.277 249.343 28.8247H255.596C255.351 27.3458 254.498 26.659 253.195 26.659C252.382 26.6705 251.588 26.9118 250.906 27.3551L249.882 25.3504C251.032 24.6313 252.368 24.2646 253.724 24.2954C256.481 24.2954 258.6 26.3651 258.6 29.7714C258.6 33.1776 256.314 35.269 253.69 35.269C250.72 35.269 249.201 33.1034 249.201 30.2138M255.618 30.8882H251.859C251.859 32.0824 252.388 32.9085 253.631 32.9085C254.649 32.9085 255.423 32.2897 255.63 30.8882" fill="#3A55A5"/>
<path d="M260.722 24.5491H263.25L263.473 25.8887H263.55C264.407 25.0255 265.345 24.2954 266.718 24.2954C268.188 24.2954 269.076 24.9142 269.602 26.0558C270.53 25.0967 271.504 24.2954 272.884 24.2954C275.143 24.2954 276.154 25.9011 276.154 28.5122V35.0092H273.06V28.9082C273.06 27.4047 272.649 26.9344 271.77 26.9344C271.244 26.9344 270.65 27.2623 269.991 27.9492V35.003H266.898V28.9082C266.898 27.4047 266.486 26.9344 265.608 26.9344C265.088 26.9344 264.488 27.2623 263.829 27.9492V35.003H260.735L260.722 24.5491Z" fill="#3A55A5"/>
<path d="M277.856 33.7933L279.248 31.8659C280.195 32.5806 281.07 32.9642 281.946 32.9642C282.821 32.9642 283.267 32.6115 283.267 32.0639C283.267 31.3771 282.23 31.0646 281.154 30.6408C279.873 30.1458 278.388 29.295 278.388 27.5686C278.388 25.6226 279.969 24.2954 282.382 24.2954C283.724 24.3079 285.023 24.7746 286.067 25.6195L284.681 27.4758C283.935 26.9375 283.202 26.5848 282.478 26.5848C281.68 26.5848 281.284 26.8942 281.284 27.4201C281.284 28.0853 282.264 28.3483 283.347 28.735C284.671 29.2238 286.163 29.9725 286.163 31.8783C286.163 33.784 284.671 35.2691 281.868 35.2691C280.405 35.2293 278.994 34.717 277.846 33.8088" fill="#3A55A5"/>
<path d="M287.632 32.1011C287.632 29.9014 289.383 28.6979 293.51 28.271C293.448 27.3583 292.991 26.7612 291.858 26.7612C290.98 26.7612 290.104 27.1294 289.089 27.6893L288 25.6784C289.33 24.8138 290.875 24.337 292.461 24.3016C295.134 24.3016 296.616 25.83 296.616 29.032V35.0061H294.089L293.866 33.9357H293.789C292.91 34.7091 291.932 35.2598 290.748 35.2598C288.842 35.2598 287.632 33.8707 287.632 32.1072M293.51 31.9711V30.1458C291.307 30.4552 290.59 31.0739 290.59 31.8628C290.59 32.5373 291.051 32.8652 291.787 32.8652C292.523 32.8652 292.96 32.5187 293.51 31.9711Z" fill="#3A55A5"/>
<path d="M299.215 31.7545V20.2426H302.309V31.8659C302.309 32.5311 302.618 32.7414 302.869 32.7414C302.996 32.7451 303.123 32.7316 303.246 32.7012L303.618 34.9844C303.124 35.1707 302.598 35.2579 302.071 35.2412C299.945 35.2412 299.218 33.8552 299.218 31.7421" fill="#3A55A5"/>
<path d="M83.5012 21.2697H86.595V35.003H83.5012V21.2697ZM83.5012 17.6809H86.6259V20.2457H83.495L83.5012 17.6809Z" fill="#3A55A5"/>
<path d="M156.236 24.5491H159.33V35.003H156.236V24.5491ZM156.236 20.1095H159.352V22.6773H156.236V20.1095Z" fill="#3A55A5"/>
<path d="M89.5835 49.8316H92.1112L92.3339 51.1557H92.4113C93.2899 50.308 94.3449 49.5779 95.768 49.5779C98.0419 49.5779 99.0103 51.1836 99.0103 53.7947V60.2917H95.9072V54.1969C95.9072 52.6933 95.505 52.2231 94.6078 52.2231C93.8313 52.2231 93.3549 52.585 92.6742 53.2378V60.2917H89.5804L89.5835 49.8316Z" fill="#3A55A5"/>
<path d="M101.634 45.5249H104.663V53.9802H104.74L108.054 49.8315H111.416L107.757 54.138L111.695 60.2853H108.338L105.987 56.2077L104.663 57.7113V60.2853H101.634V45.5249Z" fill="#3A55A5"/>
<path d="M126.378 57.1669C126.378 55.2549 124.884 54.5093 123.563 54.0205C122.477 53.6245 121.499 53.3708 121.499 52.7026C121.499 52.1828 121.895 51.8703 122.693 51.8703C123.417 51.8703 124.15 52.2199 124.893 52.7613L126.282 50.9051C125.239 50.0602 123.94 49.5934 122.597 49.5809C120.184 49.5809 118.603 50.9082 118.603 52.8542C118.603 54.5805 120.088 55.4313 121.369 55.9263C122.446 56.3501 123.479 56.6595 123.479 57.3494C123.479 57.897 123.083 58.2497 122.161 58.2497C121.239 58.2497 120.41 57.8661 119.463 57.1514L118.071 59.0788C119.101 59.8907 120.342 60.39 121.648 60.5175L120.788 62.2654C122.062 62.4325 122.393 62.7295 122.393 63.1534C122.393 63.7505 121.883 63.9887 120.228 64.0815L120.46 65.319C123.086 65.2293 124.618 64.5765 124.618 63.1534C124.618 62.2778 124.061 61.8292 123.003 61.5817L123.522 60.3968C125.379 59.976 126.372 58.7107 126.372 57.1793" fill="#3A55A5"/>
<path d="M127.848 57.3835C127.848 55.1838 129.599 53.9803 133.726 53.5534C133.664 52.6407 133.206 52.0436 132.071 52.0436C131.195 52.0436 130.319 52.4118 129.305 52.9872L128.203 50.9546C129.535 50.0905 131.081 49.6138 132.668 49.5779C135.341 49.5779 136.823 51.1062 136.823 54.3083V60.2855H134.295L134.072 59.2119H133.995C133.116 59.9854 132.139 60.5361 130.954 60.5361C129.048 60.5361 127.838 59.147 127.838 57.3835M133.716 57.2474V55.422C131.514 55.7314 130.796 56.3502 130.796 57.1391C130.796 57.8135 131.257 58.1415 131.993 58.1415C132.73 58.1415 133.166 57.795 133.716 57.2474Z" fill="#3A55A5"/>
<path d="M144.257 47.6999C144.629 47.7087 144.996 47.7852 145.34 47.9257L145.897 45.6425C145.229 45.3969 144.523 45.2713 143.811 45.2712C140.99 45.2712 139.969 47.0811 139.969 49.2932V49.8469L138.577 49.9521V52.2632H139.969V60.2885H143.063V52.2601H144.944V49.8315H143.063V49.2127C143.063 48.1299 143.499 47.7122 144.257 47.7122" fill="#3A55A5"/>
<path d="M163.216 60.2823H166.501L162.188 46.5521H158.476L154.163 60.2823H157.334L158.185 57.0122H162.371L163.216 60.2823ZM158.81 54.5991L159.141 53.3306C159.522 51.957 159.89 50.3482 160.221 48.9003H160.304C160.673 50.3327 161.038 51.957 161.418 53.3306L161.749 54.5991H158.81Z" fill="#3A55A5"/>
<path d="M178.483 55.0693C178.483 51.6662 180.9 49.5872 183.412 49.5872C186.388 49.5872 187.864 51.7528 187.864 54.6053C187.867 55.0643 187.823 55.5225 187.734 55.9727H181.481C181.76 57.4887 182.799 58.1848 184.191 58.1848C184.994 58.1709 185.777 57.9341 186.453 57.5011L187.477 59.3573C186.381 60.1035 185.09 60.5132 183.764 60.5361C180.782 60.5361 178.477 58.522 178.477 55.0601M185.212 53.9154C185.212 52.7676 184.711 51.9384 183.474 51.9384C182.496 51.9384 181.651 52.5974 181.441 53.9154H185.212Z" fill="#3A55A5"/>
<path d="M190.002 49.8316H192.529L192.752 51.1557H192.829C193.708 50.308 194.763 49.5779 196.186 49.5779C198.46 49.5779 199.428 51.1836 199.428 53.7947V60.2917H196.335V54.1969C196.335 52.6933 195.929 52.2231 195.038 52.2231C194.259 52.2231 193.782 52.585 193.102 53.2378V60.2917H190.008L190.002 49.8316Z" fill="#3A55A5"/>
<path d="M202.473 56.4832V52.2601H201.043V49.9491L202.646 49.8315L203.008 47.0471H205.57V49.8315H208.075V52.2601H205.57V56.446C205.57 57.6309 206.108 58.1074 206.922 58.1074C207.261 58.096 207.597 58.0292 207.915 57.9094L208.403 60.1586C207.654 60.4067 206.87 60.5341 206.08 60.536C203.5 60.536 202.473 58.9056 202.473 56.4832Z" fill="#3A55A5"/>
<path d="M210.124 57.0369V45.5249H213.217V57.1606C213.217 57.8258 213.527 58.0362 213.777 58.0362C213.904 58.0399 214.031 58.0263 214.155 57.9959L214.526 60.2792C214.032 60.4654 213.507 60.5527 212.979 60.5359C210.854 60.5359 210.13 59.1499 210.13 57.0369" fill="#3A55A5"/>
<path d="M221.645 64.1588L222.195 61.7983C222.425 61.8703 222.661 61.9159 222.901 61.9344C223.922 61.9344 224.448 61.3714 224.729 60.5608L224.884 60.0163L220.862 49.8315H223.974L225.469 54.3299C225.778 55.2766 226.019 56.2666 226.292 57.2906H226.378C226.61 56.3037 226.842 55.3106 227.102 54.3299L228.374 49.8315H231.338L227.702 60.3968C226.712 63.0172 225.596 64.3723 223.139 64.3723C222.634 64.3802 222.131 64.3081 221.648 64.1588" fill="#3A55A5"/>
<path d="M177.336 58.4942C177.336 61.7767 175.08 63.3545 171.668 63.3545C170.374 63.3734 169.093 63.0906 167.927 62.5285L168.753 60.4587C169.623 60.9436 170.601 61.2011 171.597 61.2074C173.174 61.2074 174.291 60.5113 174.291 58.6055V58.0363H174.254C173.921 58.4987 173.479 58.8724 172.968 59.1248C172.456 59.3771 171.891 59.5005 171.321 59.4842C168.865 59.4842 167.25 57.4856 167.25 54.7167C167.25 51.9477 168.899 49.748 171.43 49.748C172.044 49.741 172.65 49.8866 173.195 50.1717C173.739 50.4568 174.204 50.8725 174.548 51.3816H174.585L174.659 49.9491H177.336V58.4942ZM174.4 54.6269C174.4 53.0491 173.666 51.9477 172.367 51.9477C171.068 51.9477 170.331 53.1388 170.331 54.661C170.331 56.1831 170.99 57.3402 172.348 57.3402C173.707 57.3402 174.4 56.2017 174.4 54.6269Z" fill="#3A55A5"/>
<path d="M83.4981 46.5521H86.5919V60.2823H83.4981V46.5521ZM83.4981 42.9602H86.6259V45.528H83.495L83.4981 42.9602Z" fill="#3A55A5"/>
<path d="M113.18 49.8315H116.274V60.2823H113.18V49.8315ZM113.18 45.3981H116.298V47.9535H113.174L113.18 45.3981Z" fill="#3A55A5"/>
<path d="M216.147 49.8315H219.241V60.2823H216.147V49.8315ZM216.147 45.3981H219.266V47.9535H216.141L216.147 45.3981Z" fill="#3A55A5"/>
<path d="M232.94 49.8315H236.034V60.2823H232.94V49.8315ZM232.94 45.3981H236.056V47.9535H232.934L232.94 45.3981Z" fill="#3A55A5"/>
</g>
<defs>
<clipPath id="clip0_348_11069">
<rect width="303.624" height="83" fill="white"/>
</clipPath>
</defs>
</svg>
